<?xml version="1.0" standalone="no"?>
<!DOCTYPE svg PUBLIC "-//W3C//DTD SVG 1.1//EN" "http://www.w3.org/Graphics/SVG/1.1/DTD/svg11.dtd" >
<svg xmlns="http://www.w3.org/2000/svg">
<metadata>
This is a custom SVG webfont generated by Font Squirrel.
Copyright   :  1987 1991 1992 1993 2002 Adobe Systems Incorporated All rights reserved
Designer    : Paul Renner
Foundry URL : httpwwwadobecomtype
</metadata>
<defs>
<font id="FuturaStdMediumCondensed" horiz-adv-x="841" >
<font-face units-per-em="2048" ascent="1690" descent="-358" />
<missing-glyph horiz-adv-x="419" />
<glyph unicode=" "  horiz-adv-x="419" />
<glyph unicode="&#x09;" horiz-adv-x="419" />
<glyph unicode="&#xa0;" horiz-adv-x="419" />
<glyph unicode="!" horiz-adv-x="516" d="M135 106.5q0 51.5 36 87t87 35.5t87 -35.5t36 -87t-36 -87t-87 -35.5t-87 35.5t-36 87zM158 371v1173h204v-1173h-204z" />
<glyph unicode="&#x22;" horiz-adv-x="512" d="M35 1544h176l-25 -463h-127zM303 1544h176l-24 -463h-127z" />
<glyph unicode="#" d="M-80 528l35 121h221l78 254h-223l35 121h223l162 520h112l-160 -520h181l157 520h115l-160 -520h228l-35 -121h-230l-77 -254h229l-31 -121h-235l-162 -528h-113l162 528h-178l-166 -528h-113l164 528h-219zM291 649h178l78 254h-180z" />
<glyph unicode="$" d="M61 1161q0 158 79 263.5t233 119.5v133h92v-133q242 -16 299 -227l-158 -94q-12 66 -61 107.5t-119 41.5q-168 0 -168 -201q0 -29 3 -52t13.5 -45.5t16.5 -38t25.5 -35t27.5 -28.5t37 -28.5t37 -26t43 -28t43 -27.5q162 -100 220 -181t58 -249q0 -397 -317 -432v-137h-92 v137q-121 10 -191.5 65.5t-109.5 167.5l170 82q39 -143 174 -143q170 0 170 231q0 37 -4 66t-17.5 54.5t-20.5 40t-34 36t-37 28.5t-48 31.5t-50 32.5q-174 106 -244 199.5t-70 269.5z" />
<glyph unicode="%" horiz-adv-x="1132" d="M86 1196q0 70 6 123t26.5 114.5t67.5 95.5t119 34t119 -34t67.5 -95.5t26.5 -114.5t6 -123t-6 -122t-26.5 -114.5t-67.5 -96.5t-119 -34t-119 34t-67.5 96.5t-26.5 114.5t-6 122zM119 0l766 1544h127l-766 -1544h-127zM223 1144q0 -11 1 -34t3 -38t6.5 -35.5t10.5 -34 t14 -25.5t20.5 -18.5t26.5 -6.5t26.5 6.5t20.5 18.5t14.5 25.5t10.5 34t6 35.5t3 38t1 34v31v21v22v30q0 11 -1 34t-3 37t-6 34.5t-10.5 34t-14.5 26.5t-20.5 19.5t-26.5 6.5t-26.5 -6.5t-20.5 -19.5t-14 -26.5t-10.5 -34t-6.5 -34.5t-3 -36.5t-1 -34.5v-30v-22v-21v-31z M606 348.5q0 69.5 6 122.5t26.5 114.5t68 95.5t119 34t118.5 -34t67.5 -95.5t26.5 -114.5t6 -122.5t-6 -122t-26.5 -115t-67.5 -96t-118.5 -33.5t-119 33.5t-68 96t-26.5 115t-6 122zM743 298q0 -11 1 -34.5t3.5 -38t6.5 -35t10 -34t14 -26.5t20.5 -19.5t27 -6.5t26.5 6.5 t20.5 19.5t14.5 26.5t10 34t6 35t3 38t1 34.5v31v21v22v29q0 10 -1 34t-3 38t-6 34.5t-10 34t-14.5 26t-20.5 18.5t-26.5 6t-27 -6t-20.5 -18.5t-14 -26t-10 -34t-6.5 -34.5t-3.5 -37.5t-1 -34.5v-29v-22v-21v-31z" />
<glyph unicode="&#x26;" horiz-adv-x="1011" d="M51 365q0 199 215 413q-123 186 -123 363q0 129 83 212t212 83q131 0 213 -74t82 -205q0 -115 -60.5 -208t-168.5 -199l203 -336l127 180l131 -107l-164 -229l164 -258h-228l-73 121q-100 -141 -267 -141q-145 0 -245.5 115.5t-100.5 269.5zM248 373q0 -86 49 -151.5 t125 -65.5q92 0 156 106l-213 356q-117 -122 -117 -245zM332 1145q0 -31 10 -68t16.5 -53t32 -67.5t27.5 -53.5q53 53 73.5 77t47 75t26.5 102q0 53 -29.5 88t-82.5 35q-51 0 -86 -42t-35 -93z" />
<glyph unicode="'" horiz-adv-x="512" d="M168 1544h176l-25 -463h-126z" />
<glyph unicode="(" horiz-adv-x="565" d="M84 680q0 465 182 885l191 -47q-178 -467 -178 -826q0 -416 178 -874l-191 -49q-182 448 -182 911z" />
<glyph unicode=")" horiz-adv-x="565" d="M109 -182q178 459 178 874q0 358 -178 826l190 47q182 -420 182 -885q0 -463 -182 -911z" />
<glyph unicode="*" horiz-adv-x="731" d="M59 1079l232 131l-232 123l39 74l232 -135l-8 272h79v-272l228 143l43 -69l-238 -136l238 -131l-43 -69l-228 137l9 -264h-88l8 270l-224 -143z" />
<glyph unicode="+" horiz-adv-x="1024" d="M90 453v143h350v442h144v-442h352v-143h-352v-449h-144v449h-350z" />
<glyph unicode="," horiz-adv-x="419" d="M18 -348l138 565l166 -51l-199 -543z" />
<glyph unicode="-" horiz-adv-x="495" d="M66 453v155h364v-155h-364z" />
<glyph unicode="." horiz-adv-x="419" d="M88 109q0 49 36 84.5t87 35.5t87 -35.5t36 -84.5q0 -51 -36 -88t-87 -37t-87 37t-36 88z" />
<glyph unicode="/" horiz-adv-x="833" d="M-59 -211l792 1911h162l-789 -1911h-165z" />
<glyph unicode="0" d="M72 739v33v33q0 80 1 126t7 135t18.5 146.5t38 131t61 115.5t93 73t131.5 31t131 -31t93 -73t61.5 -115.5t38 -130t18.5 -147.5t7 -135t1 -126v-33v-33q0 -80 -1 -126t-7 -135t-18.5 -146.5t-38 -131t-61.5 -115.5t-93 -72.5t-131 -30.5t-131.5 30.5t-93 72.5t-61 115.5 t-38 130t-18.5 147.5t-7 135t-1 126zM272 772q0 -141 3.5 -233.5t17.5 -186.5t46 -140t83 -46t83 46t46 140t17 186.5t3 233.5t-3 233.5t-17 186.5t-46 140t-83 46t-83 -46t-46 -140t-17.5 -186.5t-3.5 -233.5z" />
<glyph unicode="1" d="M170 1366v178h352v-1544h-200v1366h-152z" />
<glyph unicode="2" d="M76 0l375 793q111 250 110 401q0 76 -31.5 130t-105.5 54q-29 0 -50.5 -12t-33.5 -36.5t-20.5 -46t-11.5 -57.5t-4 -54.5t0 -52.5t1 -36v-41h-209v56q0 106 10.5 178t42 143.5t101 107.5t176.5 36q184 0 264 -96.5t80 -284.5q0 -256 -266 -754l-131 -250h383v-178h-680z " />
<glyph unicode="3" d="M84 340v47h197v-49q0 -74 30.5 -123t98.5 -49q41 0 70.5 21.5t44 49t21.5 73.5t8 73t1 72q0 119 -38 189.5t-144 66.5h-60v184h25q127 0 169 51t42 184q0 47 -2 77t-12.5 76t-37 70.5t-67.5 24.5q-121 0 -121 -200v-48h-196v15q0 98 10 164.5t41 129t95.5 93.5t164.5 31 q180 0 250.5 -105.5t70.5 -294.5q0 -68 -5 -113.5t-20 -102t-52 -93.5t-95 -55v-4q61 -16 101.5 -51t59 -88.5t24.5 -102.5t6 -115q0 -457 -354 -456q-326 0 -326 358z" />
<glyph unicode="4" d="M59 424v176l416 944h201v-969h98v-151h-98v-424h-201v424h-416zM221 575h254v656h-4z" />
<glyph unicode="5" d="M86 45l53 182q115 -61 180 -61q121 0 176.5 107.5t55.5 236.5q0 303 -268 303q-51 0 -125 -18l90 749h491v-178h-333l-50 -389q201 8 302.5 -110.5t101.5 -323.5q0 -154 -38 -273.5t-139.5 -203.5t-256.5 -84q-103 0 -240 63z" />
<glyph unicode="6" d="M88 504q0 141 18.5 264t63.5 249t84 214t113 242q23 47 34 71h222l-301 -659l4 -4q76 70 157 69q74 0 126.5 -33.5t80 -81t43 -120t18.5 -125.5t3 -125q0 -104 -10.5 -178t-42 -150t-101.5 -115.5t-178 -39.5q-88 0 -151.5 32.5t-97.5 80.5t-54.5 123t-25.5 138.5 t-5 147.5zM297 465q0 -299 127 -299q121 0 121 297v57q0 16 -3 61.5t-10.5 70t-20.5 55t-34.5 45t-52.5 14.5q-16 0 -25.5 -1t-32 -16.5t-35 -43t-23.5 -90t-11 -150.5z" />
<glyph unicode="7" d="M78 0l430 1366h-430v178h690l-469 -1544h-221z" />
<glyph unicode="8" d="M88 434q0 76 4 124t19.5 113.5t55.5 106.5t103 58v4q-170 55 -170 344q0 178 69 278.5t239 100.5q184 0 258.5 -92.5t74.5 -286.5q0 -289 -168 -346v-2q182 -45 183 -373q0 -100 -12.5 -176t-45 -151t-102.5 -114.5t-174 -39.5q-334 -1 -334 452zM297 424 q0 -258 123 -258q127 0 127 258q0 57 -2 89t-12.5 92.5t-39 91t-73.5 30.5q-31 0 -53.5 -14.5t-36 -47t-20.5 -54t-10 -70.5t-3 -61v-56zM307 1163q0 -49 6 -95t34 -93t75 -47q35 0 59.5 25.5t34.5 66.5t14.5 74.5t4.5 68.5q0 215 -113 215q-115 0 -115 -215z" />
<glyph unicode="9" d="M90 1036q0 88 4 148.5t22.5 138.5t52.5 125t97.5 81t153.5 34q76 0 133 -20.5t92 -62.5t58.5 -88t34 -112t13.5 -118t3 -124q0 -233 -54.5 -415.5t-177.5 -438.5l-90 -184h-223l307 645l-4 4q-63 -61 -156 -61q-266 -1 -266 448zM299 1067q0 -43 1 -67.5t7 -73.5 t17.5 -78t36 -52.5t59.5 -23.5q127 0 125 293v14q0 299 -125 299q-121 0 -121 -311z" />
<glyph unicode=":" horiz-adv-x="419" d="M88 109q0 49 36 84.5t87 35.5t87 -35.5t36 -84.5q0 -51 -36 -88t-87 -37t-87 37t-36 88zM88 928q0 49 36 85t87 36t87 -36t36 -85q0 -51 -36 -88t-87 -37t-87 37t-36 88z" />
<glyph unicode=";" horiz-adv-x="419" d="M20 -348l138 565l166 -51l-197 -543zM88 928q0 49 36 85t87 36t87 -36t36 -85q0 -51 -36 -88t-87 -37t-87 37t-36 88z" />
<glyph unicode="&#x3c;" horiz-adv-x="1024" d="M90 455v131l846 475v-150l-686 -391l686 -391v-149z" />
<glyph unicode="=" horiz-adv-x="1024" d="M90 254v143h846v-143h-846zM90 643v143h846v-143h-846z" />
<glyph unicode="&#x3e;" horiz-adv-x="1024" d="M90 -20v149l686 391l-686 391v150l846 -475v-131z" />
<glyph unicode="?" horiz-adv-x="698" d="M70 1163v25q0 72 4 119t20.5 100t44 85t79.5 52.5t124 20.5q84 0 142.5 -27t89 -65.5t48 -105.5t21.5 -123t4 -142q0 -63 -2 -103.5t-13 -106t-31.5 -104t-63.5 -68.5t-105 -28v-327h-180v464l47 -2q53 0 86 19.5t46 62.5t16.5 76t3.5 94v30v39q0 15 -1 44t-3.5 47 t-7.5 44t-12 42t-17.5 31.5t-25.5 24t-34 8.5q-31 0 -51 -15.5t-27.5 -47.5t-8.5 -52.5t-1 -59.5v-14v-37h-192zM217 106.5q0 51.5 36 87t87 35.5t87 -35.5t36 -87t-36 -87t-87 -35.5t-87 35.5t-36 87z" />
<glyph unicode="@" horiz-adv-x="1638" d="M57 780q0 326 235.5 555.5t565.5 229.5q291 0 506 -189.5t215 -472.5q0 -129 -61.5 -267t-179 -239.5t-257.5 -101.5q-59 0 -111 27.5t-69 80.5q-100 -104 -248 -104q-131 0 -211 91t-80 222q0 143 63.5 286.5t185.5 245t270 101.5q76 0 140 -35.5t95 -103.5l31 98h141 l-213 -633q-27 -74 -26 -106q0 -27 17 -44.5t44 -17.5q109 0 223.5 143.5t114.5 364.5q0 242 -174 384.5t-422 142.5q-285 0 -474.5 -195.5t-189.5 -478.5q0 -276 193.5 -467t474.5 -191q166 0 313.5 69t235.5 196h129q-98 -180 -284.5 -285.5t-393.5 -105.5 q-340 0 -572.5 234t-226.5 566zM530 623q0 -82 39 -136.5t115 -54.5q96 0 178 103.5t121 225.5t39 210q0 61 -38 101t-101 40q-102 0 -186.5 -84t-125.5 -194.5t-41 -210.5z" />
<glyph unicode="A" horiz-adv-x="847" d="M8 0l336 1544h162l332 -1544h-207l-58 301h-307l-57 -301h-201zM297 461h246l-41 223l-78 561h-4z" />
<glyph unicode="B" horiz-adv-x="856" d="M125 0v1544h256q199 0 277.5 -102.5t78.5 -311.5q0 -86 -13 -148t-58 -117.5t-123 -76.5v-4q123 -39 170 -129t47 -233q0 -219 -90 -320.5t-299 -101.5h-246zM319 174q11 -1 23 0q109 0 153 56q48 62 48 198q0 141 -46 208q-45 65 -170 64h-8v-526zM319 864h21 q114 0 154 64q43 70 43 211q0 102 -42 168q-41 64 -135 63h-6h-35v-506z" />
<glyph unicode="C" horiz-adv-x="755" d="M86 748q0 817 459 817q100 0 178 -45v-187q-78 39 -131 39q-68 0 -120 -29.5t-83 -88t-49 -114t-25.5 -137t-9.5 -127t-2 -114.5q0 -590 297 -590q63 0 123 31v-180q-68 -43 -164 -43q-473 0 -473 768z" />
<glyph unicode="D" horiz-adv-x="954" d="M125 0v1544h229q66 0 106 -3t101.5 -18.5t99 -46t81.5 -89t69 -141.5t42 -210t17 -291q0 -150 -15 -265t-38.5 -194t-69 -133.5t-88.5 -84t-114.5 -45t-129 -19.5t-149.5 -4h-141zM330 174h14q59 0 106 15q52 17 85.5 41t57 73t36 86t17.5 106.5t6 106.5t1 113v30v41v111 q0 39 -6 111.5t-17.5 115.5t-35 98.5t-57 84t-86.5 48.5q-44 16 -98 16q-11 0 -23 -1v-1196z" />
<glyph unicode="E" horiz-adv-x="710" d="M125 0v1544h551v-178h-346v-485h309v-179h-309v-524h346v-178h-551z" />
<glyph unicode="F" horiz-adv-x="700" d="M125 0v1544h555v-178h-350v-485h315v-179h-315v-702h-205z" />
<glyph unicode="G" horiz-adv-x="942" d="M86 768q0 123 4 211t17.5 186.5t41 165t69.5 122.5t107.5 84t151.5 28q160 0 248 -78t129 -238l-195 -80q-10 47 -19 77t-27.5 61.5t-51.5 48t-78 16.5q-41 0 -71.5 -17.5t-50 -57.5t-32 -85t-17.5 -121.5t-7 -145t-2 -175.5q0 -193 14.5 -318.5t43 -183t56 -77 t66.5 -19.5q31 0 51.5 4t47 24.5t41 58.5t25.5 112.5t11 181.5v84h-172v178h377v-24q0 -23 1 -93.5t1 -105.5t-3 -105.5t-9 -109.5t-19.5 -100.5t-32 -97.5t-46 -79t-64.5 -65.5t-87 -38.5t-109 -16q-90 0 -158 26.5t-112 81.5t-72.5 120.5t-43 162t-19.5 186.5t-5 211z" />
<glyph unicode="H" horiz-adv-x="968" d="M125 0v1544h205v-602h309v602h205v-1544h-205v764h-309v-764h-205z" />
<glyph unicode="I" horiz-adv-x="454" d="M125 0v1544h205v-1544h-205z" />
<glyph unicode="J" horiz-adv-x="620" d="M16 20v209q88 -53 136 -53q49 0 78.5 17.5t42 54.5t15.5 65.5t3 79.5v1151h205v-1161q0 -94 -10.5 -157.5t-40 -124t-93 -91t-159.5 -30.5q-103 -1 -177 40z" />
<glyph unicode="K" horiz-adv-x="868" d="M125 0v1544h209v-741l289 741h211l-304 -747l328 -797h-235l-289 782v-782h-209z" />
<glyph unicode="L" horiz-adv-x="677" d="M125 0v1544h205v-1366h344v-178h-549z" />
<glyph unicode="M" horiz-adv-x="1148" d="M49 0l127 1544h176l219 -1114h4l7 64l61 370l133 680h180l144 -1544h-201l-37 575l-12 287l-4 203h-4l-35 -221l-160 -844h-141l-199 1065h-4l-59 -1065h-195z" />
<glyph unicode="N" horiz-adv-x="966" d="M125 0v1544h197l360 -1173l4 4l-49 618v551h205v-1544h-191l-360 1190l-4 -4l12 -101l31 -518v-567h-205z" />
<glyph unicode="O" horiz-adv-x="974" d="M86 772q0 82 1 133t9 143.5t22.5 154t44.5 136t70.5 119.5t106.5 76t147.5 31t147 -31t106.5 -76t71 -119.5t44 -136t22.5 -154t9.5 -143.5t1 -133t-1 -133t-9.5 -143.5t-22.5 -153.5t-44 -136t-71 -120t-106.5 -75.5t-147 -30.5t-147.5 30.5t-106.5 75.5t-70.5 120 t-44.5 136t-22.5 153.5t-9 143.5t-1 133zM303 772q0 -291 37 -445.5t147.5 -154.5t147.5 154.5t37 445.5t-37 445.5t-147.5 154.5t-147.5 -154.5t-37 -445.5z" />
<glyph unicode="P" horiz-adv-x="794" d="M125 0v1544h246q68 0 111.5 -4t104 -27.5t96.5 -64.5t62.5 -122t26.5 -196q0 -240 -103 -347q-96 -100 -307 -100q-16 0 -32 1v-684h-205zM330 858q15 -1 28 -1q105 0 148 56q49 63 49 201q0 256 -197 256h-28v-512z" />
<glyph unicode="Q" horiz-adv-x="980" d="M86 772q0 82 1 133t9 143.5t22.5 154t44.5 136t70.5 119.5t106.5 76t147.5 31t147 -31t106.5 -76t71 -119.5t44 -136t22.5 -154t9.5 -143.5t1 -133q0 -414 -92 -604l139 -193l-133 -94l-109 162q-78 -63 -207 -63q-82 0 -147.5 30.5t-106 75.5t-70.5 120t-44.5 136 t-22.5 153.5t-9 143.5t-1 133zM303 772q0 -291 37 -445.5t147 -154.5q53 0 84 33l-129 186l125 98l78 -110h4q23 229 23 393q0 291 -37 445.5t-147.5 154.5t-147.5 -154.5t-37 -445.5z" />
<glyph unicode="R" horiz-adv-x="851" d="M125 0v1544h246q59 0 98 -3t99.5 -24.5t95 -60.5t62.5 -117.5t28 -189.5q0 -84 -16.5 -162t-66.5 -149.5t-130 -85.5l284 -752h-213l-278 756h-4v-756h-205zM330 860q11 -1 21 -1q186 0 186 245q0 131 -34 200q-33 67 -134 66h-7h-32v-510z" />
<glyph unicode="S" horiz-adv-x="724" d="M39 1169q0 172 90 284t256 112q131 0 217 -52l-2 -206q-90 66 -174 65q-82 0 -132 -58.5t-50 -139.5q0 -94 57 -168l156 -170q119 -121 169 -214.5t50 -238.5q0 -170 -98.5 -286.5t-264.5 -116.5q-133 0 -225 73v207q109 -80 203 -80q90 0 135 61.5t45 153.5 q0 84 -44 158t-108.5 133t-128 122.5t-107.5 155.5t-44 205z" />
<glyph unicode="T" horiz-adv-x="661" d="M-8 1366v178h678v-178h-232v-1366h-205v1366h-241z" />
<glyph unicode="U" horiz-adv-x="956" d="M125 479v1065h205v-1132q0 -139 36.5 -189.5t106.5 -50.5q96 0 125 52t31 165v1155h205v-1095q0 -61 -1.5 -92t-7.5 -89.5t-18 -90.5t-39 -76t-63.5 -66.5t-94 -38.5t-131.5 -16q-94 0 -161.5 26.5t-104.5 67.5t-57.5 110.5t-25.5 134t-5 160.5z" />
<glyph unicode="V" horiz-adv-x="792" d="M14 1544h205l176 -1161h4l11 96l82 520l94 545h194l-303 -1544h-164z" />
<glyph unicode="W" horiz-adv-x="1212" d="M4 1544h201l145 -1046l8 -115h4l62 518l106 643h160l168 -1151h4l56 496l94 655h198l-270 -1544h-164l-117 719l-47 389l-2 39h-4l-45 -416l-123 -731h-168z" />
<glyph unicode="X" horiz-adv-x="874" d="M49 0l293 784l-274 760h202l99 -274q66 -182 82 -283h4l55 213l108 344h209l-284 -760l284 -784h-209l-94 270q-72 209 -84 308h-4q-2 -63 -39 -179l-127 -399h-221z" />
<glyph unicode="Y" horiz-adv-x="802" d="M4 1544h221l189 -715h4l33 199l131 516h219l-287 -878v-666h-205v666z" />
<glyph unicode="Z" horiz-adv-x="804" d="M31 0l469 1366h-414v178h682l-465 -1366h440v-178h-712z" />
<glyph unicode="[" horiz-adv-x="614" d="M78 -211v1755h448v-139h-272v-1477h272v-139h-448z" />
<glyph unicode="\" horiz-adv-x="512" d="M-221 1700h162l792 -1911h-166z" />
<glyph unicode="]" horiz-adv-x="614" d="M88 -72h272v1477h-272v139h449v-1755h-449v139z" />
<glyph unicode="^" horiz-adv-x="1024" d="M90 690l371 854h100l375 -854h-137l-289 664l-285 -664h-135z" />
<glyph unicode="_" horiz-adv-x="1024" d="M0 -154h1024v-102h-1024v102z" />
<glyph unicode="`" horiz-adv-x="573" d="M135 1440l137 88l168 -305l-102 -60z" />
<glyph unicode="a" horiz-adv-x="778" d="M59 530q0 72 2 123.5t15.5 133t38 133t75 91.5t119.5 40q125 0 185 -131h4v114h192v-1034h-192v133h-4q-33 -76 -74 -112.5t-117 -36.5q-57 0 -101 27.5t-68.5 78.5t-41 102.5t-23 123t-8.5 113.5t-2 101zM256 437q0 -17 1 -51t5 -55.5t9 -51t15.5 -49t23 -38t31.5 -27.5 t42 -9q121 0 121 336v12v14q0 256 -55 326q-27 35 -66 35q-23 0 -42 -9.5t-31.5 -28t-23 -38t-15.5 -49t-9 -51t-5 -55.5t-1 -50v-46v-34v-34v-47z" />
<glyph unicode="b" horiz-adv-x="778" d="M88 0v1700h193v-780h4q35 68 69 96q45 35 115 35t120 -40t74.5 -91.5t38 -133t15.5 -133t2 -123.5q0 -59 -2 -101t-8.5 -113.5t-22.5 -123t-40.5 -102.5t-69 -78.5t-101.5 -27.5q-76 0 -117 36.5t-73 112.5h-4v-133h-193zM274 518q0 -256 56 -328q27 -35 65 -34 q23 0 42.5 9t31.5 27.5t22.5 38t15.5 50t9 52t5 55.5t1 50v46v34v34v46q0 16 -1 50t-5 55.5t-9 51t-15.5 49t-22.5 38t-31.5 28t-42.5 9.5q-121 0 -121 -335v-12v-14z" />
<glyph unicode="c" horiz-adv-x="569" d="M59 508q0 63 3.5 115.5t13.5 119t31.5 117.5t53.5 96t85 70t121 25q82 0 153 -35v-195h-4q-31 47 -90 49q-170 -2 -170 -344q0 -362 166 -362q45 0 98 39v-178q-70 -41 -155 -41q-306 0 -306 524z" />
<glyph unicode="d" horiz-adv-x="778" d="M59 530q0 72 2 123.5t15.5 133t38 133t75 91.5t120 40t110.5 -33t74 -98h4v780h192v-1700h-192v133h-4q-33 -76 -74 -112.5t-117 -36.5q-57 0 -101 27.5t-68.5 78.5t-41 102.5t-23 123t-8.5 113.5t-2 101zM256 437q0 -17 1 -51t5 -55.5t9 -51t15.5 -49t23 -38t31.5 -27.5 t42 -9q121 0 121 336v12v14q0 256 -55 326q-27 35 -66 35q-23 0 -42 -9.5t-31.5 -28t-23 -38t-15.5 -49t-9 -51t-5 -55.5t-1 -50v-46v-34v-34v-47z" />
<glyph unicode="e" horiz-adv-x="739" d="M59 510q0 63 3.5 114.5t13.5 118t31.5 117.5t54.5 96t86 70t121 25q313 0 313 -541v-31h-426q0 -324 121 -323.5t121 192.5h178q0 -158 -74 -261t-227 -103q-82 0 -143.5 34.5t-93.5 86t-50 127t-23.5 138t-5.5 140.5zM256 616h229q0 262 -116 263q-41 0 -65.5 -24 t-34 -71t-11.5 -75.5t-2 -77.5v-15z" />
<glyph unicode="f" horiz-adv-x="509" d="M43 883v151h96v334q0 80 6.5 131t28 106.5t71.5 83t128 27.5q61 0 129 -28v-201q-45 25 -80 24q-43 0 -64.5 -26.5t-23.5 -52t-2 -72.5v-14v-312h160v-151h-160v-883h-193v883h-96z" />
<glyph unicode="g" horiz-adv-x="782" d="M59 510v84q0 29 5.5 94.5t13.5 105.5t26.5 95t44 86t66.5 53.5t92 22.5q72 0 113 -35t76 -105l4 4v119h194v-1042q0 -135 -19.5 -222t-62.5 -132.5t-96 -61.5t-137 -16q-141 0 -223 77.5t-82 221.5v28h186v-15q0 -54 26 -94q30 -46 97 -46q20 0 37.5 4t29 14t20.5 17.5 t14 26t9.5 26.5t5.5 32.5t1 31.5v35v32v172h-4q-20 -66 -69 -104q-46 -36 -109 -35h-7q-59 0 -104 25.5t-70.5 73.5t-43 96t-24 118t-8.5 112t-2 101zM256 522q0 -217 35 -295q33 -72 92 -71q29 0 50.5 14t33.5 43t20.5 55.5t11.5 69.5t4 65q1 11 0.5 27t-0.5 37 q-1 41 -1 45q0 367 -125 367q-121 0 -121 -317v-21v-19z" />
<glyph unicode="h" horiz-adv-x="794" d="M90 0v1700h193v-785h4q35 66 82 99q53 37 127 37q59 0 101 -21.5t62.5 -51.5t31.5 -82t13.5 -88t2.5 -97v-711h-193v715q0 164 -115 164q-41 0 -67.5 -18.5t-35.5 -58.5t-11 -65.5t-2 -72.5v-19v-645h-193z" />
<glyph unicode="i" horiz-adv-x="368" d="M57 1347.5q0 53.5 38 90.5t91 37q51 0 89 -38t38 -89q0 -53 -37.5 -91t-89.5 -38q-53 0 -91 37.5t-38 91zM88 0v1034h193v-1034h-193z" />
<glyph unicode="j" horiz-adv-x="368" d="M57 1347.5q0 53.5 38 90.5t91 37q51 -2 89 -40t38 -89q0 -53 -38 -92q-36 -36 -83 -36q-3 0 -6 1q-53 0 -91 37.5t-38 91zM88 -424v1458h193v-1458h-193z" />
<glyph unicode="k" horiz-adv-x="808" d="M90 0v1700h193v-1125h4l239 459h215l-264 -459l299 -575h-223l-266 549h-4v-549h-193z" />
<glyph unicode="l" horiz-adv-x="368" d="M88 0v1700h193v-1700h-193z" />
<glyph unicode="m" horiz-adv-x="1208" d="M88 0v1034h195v-127h4q66 143 202 144q70 0 121.5 -38t65.5 -106h4q66 143 213 144q227 0 227 -250v-801h-192v725q0 72 -20.5 113t-84.5 41q-23 0 -40 -4.5t-30.5 -14.5t-22.5 -18t-14 -25.5t-9.5 -28t-5.5 -34t-1 -31.5v-34v-32v-657h-192v702q0 39 -1 52.5t-7 44 t-16.5 43t-32 25t-54.5 12.5q-23 0 -40 -7.5t-28.5 -14.5t-20.5 -25.5t-13 -29.5t-7 -37t-4 -35t-2 -37.5t-1 -35.5v-657h-193z" />
<glyph unicode="n" horiz-adv-x="794" d="M90 0v1034h193v-119h4q35 66 82 99q53 37 127 37q59 0 100 -21.5t62.5 -51.5t32.5 -81t13.5 -89t2.5 -97v-711h-193v715q0 164 -115 164q-41 0 -67.5 -18.5t-35.5 -58.5t-11 -65.5t-2 -72.5v-19v-645h-193z" />
<glyph unicode="o" horiz-adv-x="768" d="M59 514q0 80 5.5 143.5t25 141.5t53 129t96 87t146.5 36t146.5 -36t96.5 -87t53 -129t24.5 -141.5t5.5 -143.5q0 -78 -5.5 -140.5t-24.5 -139t-53 -128t-96.5 -87t-146.5 -35.5t-146.5 35.5t-96 87t-53 128t-25 139t-5.5 140.5zM256 439q0 -17 1 -49t4 -54.5t9 -52 t16.5 -49t23 -38t31.5 -27.5t44 -9t44.5 9t31.5 27.5t22.5 38t16.5 49t9 52t4 54.5t1 49v44v31v34v45q0 17 -1 50t-4 55.5t-9 52t-16.5 49t-22.5 38t-31.5 27.5t-44.5 9t-44 -9t-31.5 -27.5t-23 -38t-16.5 -49t-9 -52t-4 -55.5t-1 -50v-45v-34v-31v-44z" />
<glyph unicode="p" horiz-adv-x="778" d="M88 -424v1458h193v-133h4q31 74 73.5 112t116.5 38q49 0 89 -22.5t64.5 -55.5t43 -85t27 -96t13.5 -105.5t6 -96.5t1 -84q0 -72 -2 -123t-15.5 -133t-38 -134.5t-74.5 -92t-120 -39.5q-72 0 -113 32.5t-71 100.5h-4v-541h-193zM274 516q0 -256 56 -326q27 -35 65 -34 q80 0 103.5 95t23.5 265v34v46q0 16 -1 50t-5 56.5t-9 52t-15.5 49t-22.5 38t-31.5 28t-42.5 9.5q-121 0 -121 -337v-12v-14z" />
<glyph unicode="q" horiz-adv-x="778" d="M59 506q0 49 1 84t6.5 96.5t13.5 105.5t26.5 96t43 85t64.5 55.5t89 22.5q76 0 118 -38t73 -112h4v133h192v-1458h-192v541h-4q-31 -68 -70 -99q-45 -35 -114.5 -34.5t-120 40t-75 92t-38 134.5t-15.5 133t-2 123zM256 436q0 -16 1 -50t5 -55.5t9 -51t15.5 -49t23 -38 t31.5 -27.5t42 -9q121 0 121 335v11v14v14v12q0 337 -121 337q-23 0 -42 -9.5t-31.5 -28t-23 -38t-15.5 -49t-9 -51t-5 -55.5t-1 -51v-47v-34v-34v-46z" />
<glyph unicode="r" horiz-adv-x="550" d="M90 0v1034h193v-127h4q72 143 219 144v-191l-33 2q-102 0 -145 -53t-43 -158v-651h-195z" />
<glyph unicode="s" horiz-adv-x="565" d="M29 768q0 123 76.5 203t199.5 80q98 0 174 -45v-183q-61 55 -143 56q-55 0 -93 -30t-38 -81q2 -47 35.5 -87t81 -73t94.5 -70.5t79.5 -101t32.5 -145.5q0 -137 -79.5 -222t-217.5 -85q-86 0 -168 49v188q82 -66 160 -65q61 0 95 34.5t34 96.5q0 49 -33.5 91t-81 75.5 t-94.5 72.5t-80.5 100.5t-33.5 141.5z" />
<glyph unicode="t" horiz-adv-x="452" d="M25 883v151h104v293h193v-293h102v-151h-102v-883h-193v883h-104z" />
<glyph unicode="u" horiz-adv-x="796" d="M90 377v657h193v-647v-31v-35q0 -7 1 -33t5 -34t9 -28.5t14.5 -28t21.5 -18.5t29.5 -15t38 -4t38 4t28.5 13t20.5 17.5t14.5 26t8 27.5t4 31.5t1 31.5v35v31v657h193v-698q0 -172 -67 -262t-232 -90q-195 0 -257.5 96t-62.5 297z" />
<glyph unicode="v" horiz-adv-x="733" d="M27 1034h204l140 -782h4l6 61l76 418l63 303h187l-273 -1034h-127z" />
<glyph unicode="w" horiz-adv-x="997" d="M-6 1034h203l110 -721v-20h4l45 321l80 420h137l117 -721v-20h4l54 385l67 356h189l-244 -1034h-131l-105 530l-20 230h-4l-45 -371l-76 -389h-133z" />
<glyph unicode="x" horiz-adv-x="808" d="M29 0l258 547l-258 487h225l145 -354l50 154l83 200h201l-233 -487l282 -547h-227l-102 223q-59 141 -68 197h-4q-6 -74 -70 -227l-82 -193h-200z" />
<glyph unicode="y" horiz-adv-x="763" d="M8 1034h215l152 -721h4l174 721h195l-422 -1458h-203l160 508z" />
<glyph unicode="z" horiz-adv-x="686" d="M29 0l358 862h-332v172h602l-346 -862h328v-172h-610z" />
<glyph unicode="{" horiz-adv-x="528" d="M4 616v107q180 20 184 166v385q0 150 70 210t201 60h63v-117q-90 -8 -127 -47t-35 -131v-325q0 -109 -39.5 -169.5t-152.5 -82.5v-4q113 -23 152.5 -83.5t39.5 -168.5v-326q-2 -92 35 -131t127 -47v-117h-63q-131 0 -201 60.5t-70 210.5v385q-4 145 -184 165z" />
<glyph unicode="|" horiz-adv-x="512" d="M184 -438v2048h144v-2048h-144z" />
<glyph unicode="}" horiz-adv-x="528" d="M6 -88q90 8 127 47t35 131v326q0 109 40 169t152 83v4q-113 23 -152.5 83t-39.5 169v325q2 92 -35 131t-127 47v117h64q131 0 200.5 -60.5t69.5 -209.5v-385q4 -145 184 -166v-107q-180 -20 -184 -165v-385q0 -150 -69.5 -210.5t-200.5 -60.5h-64v117z" />
<glyph unicode="~" horiz-adv-x="1024" d="M90 436q49 109 104.5 175.5t135.5 66.5q70 0 196 -72q139 -72 174 -71q90 0 166 170l70 -97q-100 -227 -238 -227q-47 0 -227 90q-98 51 -141 51q-41 0 -77 -32.5t-51.5 -63.5t-41.5 -88z" />
<glyph unicode="&#xa2;" d="M201 762q0 90 7 160.5t29.5 158.5t77 145.5t136.5 73.5v144h96v-148q57 -8 94 -22v-182q-33 27 -80 26q-53 0 -87 -35.5t-46 -102.5t-15 -108t-3 -102q0 -358 153 -358q25 0 78 22v-170q-39 -25 -98 -26v-134h-92v129q-162 47 -215 203q-35 101 -35 326z" />
<glyph unicode="&#xa3;" d="M43 74q8 72 64.5 127t125.5 55l31 -2q41 72 41 152q0 76 -41 182h-180v80h152q-55 121 -76 167t-47.5 143t-26.5 179q0 186 100.5 296t284.5 110q141 0 226 -81t91 -222l-159 -78q8 213 -160 213q-88 0 -137 -55.5t-49 -143.5q0 -63 18 -144t30.5 -118t57.5 -148.5 t47 -117.5h199v-80h-186q23 -68 22 -137q0 -135 -51 -236q8 -4 31.5 -17.5t38 -20.5t35 -13t36.5 -6q49 0 74 69l168 -55q-66 -190 -219 -190q-72 0 -174.5 49t-139.5 49q-53 0 -69 -70z" />
<glyph unicode="&#xa5;" d="M23 1544h221l200 -713h5l28 197l123 516h219l-194 -631h166v-102h-197l-45 -145v-23h242v-102h-242v-541h-205v541h-242v102h242v23l-53 145h-189v102h152z" />
<glyph unicode="&#xa7;" horiz-adv-x="849" d="M78 666q0 201 162 290q-123 80 -123 281q0 145 87 236.5t230 91.5q154 0 236 -92.5t88 -247.5h-209q-4 35 -9 56.5t-16.5 50t-33 43t-54.5 14.5q-117 0 -117 -166q0 -96 49.5 -144.5t155.5 -87.5q279 -113 291 -348q0 -96 -43 -185t-119 -141q117 -94 117 -260 q0 -158 -83 -249t-241 -91q-160 0 -250 86t-90 246v39h209q0 -195 123 -194q68 0 99.5 46t31.5 117q0 49 -16 87t-54 70t-63.5 48.5t-79.5 46.5q-145 84 -182 119q-90 84 -96 238zM274 692q0 -45 15.5 -82t52.5 -68.5t61.5 -47t75.5 -43.5l33 -19q106 84 106 189 q2 45 -11 78.5t-51 61t-62.5 41t-79.5 40.5l-49 24q-91 -76 -91 -174z" />
<glyph unicode="&#xa8;" horiz-adv-x="573" d="M6 1349.5q0 49.5 34 84t85 34.5q45 0 79 -33.5t34 -78.5q0 -47 -33 -83t-80 -36q-49 0 -84 31.5t-35 81zM336 1349.5q0 49.5 33.5 84t85.5 34.5q45 0 78.5 -33.5t33.5 -78.5q0 -47 -32.5 -83t-79.5 -36q-49 0 -84 31.5t-35 81z" />
<glyph unicode="&#xa9;" horiz-adv-x="1638" d="M27 774q0 328 232.5 559.5t562 231.5t561 -231.5t231.5 -559.5q0 -332 -231.5 -563t-561 -231t-562 231t-232.5 563zM156 772q0 -283 192.5 -474.5t472.5 -188.5q283 -2 473.5 189t190.5 474q0 279 -191.5 471.5t-472 192.5t-473 -192.5t-192.5 -471.5zM414 780.5 q0 198.5 118.5 327.5t317.5 129q145 0 247.5 -81t127.5 -220h-133q-14 90 -81 141t-159 51q-150 0 -227.5 -95t-77.5 -251q0 -152 81 -253t228 -101q94 0 160.5 53.5t75.5 147.5h133q-14 -137 -121 -223.5t-248 -86.5q-199 0 -320.5 131.5t-121.5 330z" />
<glyph unicode="&#xaa;" horiz-adv-x="352" d="M-29 1253q0 311 162 312q78 0 121 -78h2v67h125v-620h-125v80h-4q-20 -45 -47 -67.5t-76 -22.5q-158 -1 -158 329zM98 1196q0 -10 1 -30.5t3 -33t6.5 -31t10.5 -30.5t14 -23.5t20.5 -16.5t26.5 -5q80 0 80 219q0 217 -80 217q-14 0 -26.5 -5t-20.5 -16t-14 -22.5 t-10.5 -30t-6.5 -32t-3 -33.5t-1 -30v-27v-21v-20v-29z" />
<glyph unicode="&#xab;" horiz-adv-x="731" d="M53 532l264 455l93 -55l-236 -400l213 -407l-90 -51zM297 532l264 455l92 -55l-235 -400l213 -407l-90 -51z" />
<glyph unicode="&#xac;" horiz-adv-x="1024" d="M90 643v143h846v-546h-143v403h-703z" />
<glyph unicode="&#xad;" horiz-adv-x="495" d="M66 453v155h364v-155h-364z" />
<glyph unicode="&#xae;" horiz-adv-x="1638" d="M27 774q0 328 232.5 559.5t562 231.5t561 -231.5t231.5 -559.5q0 -332 -231.5 -563t-561 -231t-562 231t-232.5 563zM156 772q0 -283 192.5 -474.5t472.5 -188.5q283 -2 473.5 189t190.5 474q0 279 -191.5 471.5t-472 192.5t-473 -192.5t-192.5 -471.5zM504 330v891h389 q150 0 215 -50q49 -27 76.5 -80t25.5 -110q0 -242 -280 -250l266 -401h-143l-252 401h-172v-401h-125zM629 827h151h42h46q12 0 44 2t46.5 6.5t39 11.5t35.5 19.5t25.5 27.5t19.5 38.5t5 52.5q0 84 -57 111.5t-158 27.5h-239v-297z" />
<glyph unicode="&#xaf;" horiz-adv-x="573" d="M-33 1346v118h641v-118h-641z" />
<glyph unicode="&#xb0;" horiz-adv-x="819" d="M102 1237q0 127 90.5 217t217.5 90t217 -90t90 -217t-90 -217t-217 -90t-217.5 90t-90.5 217zM229 1237q0 -76 53.5 -128t127 -52t127 52t53.5 128q0 74 -53.5 127t-127 53t-127 -53t-53.5 -127z" />
<glyph unicode="&#xb1;" horiz-adv-x="1024" d="M90 4v143h846v-143h-846zM90 575v144h350v319h144v-319h352v-144h-352v-325h-144v325h-350z" />
<glyph unicode="&#xb4;" horiz-adv-x="573" d="M135 1223l168 305l137 -88l-202 -277z" />
<glyph unicode="&#xb5;" horiz-adv-x="794" d="M90 -418v1452h193v-645v-18q0 -47 2 -74t11 -65.5t35.5 -57t67.5 -18.5q115 0 115 163v715h193v-710q0 -61 -2.5 -97.5t-13.5 -88.5t-31.5 -81.5t-62.5 -51t-101 -21.5q-139 0 -209 135h-4v-537h-193z" />
<glyph unicode="&#xb6;" horiz-adv-x="901" d="M0 1147q0 182 106 299q55 61 115 78.5t154 19.5h426v-1773h-162v1636h-156v-1636h-161v987q-127 -2 -224.5 114.5t-97.5 274.5z" />
<glyph unicode="&#xb7;" horiz-adv-x="419" d="M88 524q0 49 36 85t87 36t87 -36t36 -85q0 -51 -36 -88t-87 -37t-87 37t-36 88z" />
<glyph unicode="&#xb8;" horiz-adv-x="573" d="M156 -395l127 291l135 -66l-174 -272z" />
<glyph unicode="&#xba;" horiz-adv-x="352" d="M-35 1241q0 61 6 109.5t25.5 101.5t66 83t114 30t113.5 -30t65.5 -83t25.5 -101t6 -110q0 -317 -211 -317t-211 317zM96 1195q0 -9 1 -29.5t3 -33t6.5 -30t10.5 -28.5t14 -22.5t20.5 -16.5t27 -5t25.5 5t19 16.5t14.5 22.5t9.5 28.5t5 31t3 33t1 28.5v27v19v21v27v30 q0 18 -2 32.5t-6 32t-10.5 29.5t-13.5 23.5t-19 16.5t-26.5 5t-27 -5t-20.5 -16.5t-14 -23.5t-10.5 -29.5t-6.5 -31t-3 -34t-1 -29.5v-27v-21v-19v-27z" />
<glyph unicode="&#xbb;" horiz-adv-x="731" d="M78 932l92 55l264 -455l-244 -458l-90 51l213 407zM322 932l92 55l264 -455l-244 -458l-90 51l213 407z" />
<glyph unicode="&#xc0;" horiz-adv-x="847" d="M8 0l336 1544h162l332 -1544h-207l-58 301h-307l-57 -301h-201zM242 1888l137 88l168 -305l-103 -59zM297 461h246l-41 223l-78 561h-4z" />
<glyph unicode="&#xc1;" horiz-adv-x="847" d="M8 0l336 1544h162l332 -1544h-207l-58 301h-307l-57 -301h-201zM297 461h246l-41 223l-78 561h-4zM303 1671l168 305l137 -88l-202 -276z" />
<glyph unicode="&#xc2;" horiz-adv-x="847" d="M8 0l336 1544h162l332 -1544h-207l-58 301h-307l-57 -301h-201zM170 1698l258 287l252 -287l-96 -78l-160 170l-148 -170zM297 461h246l-41 223l-78 561h-4z" />
<glyph unicode="&#xc3;" horiz-adv-x="847" d="M8 0l336 1544h162l332 -1544h-207l-58 301h-307l-57 -301h-201zM168 1722q2 84 39 143.5t115 59.5q51 0 114.5 -33.5t91.5 -33.5q35 0 39 59h115q2 -86 -34 -144.5t-118 -58.5q-41 0 -104.5 33t-87.5 33q-49 0 -45 -58h-125zM297 461h246l-41 223l-78 561h-4z" />
<glyph unicode="&#xc4;" horiz-adv-x="847" d="M8 0l336 1544h162l332 -1544h-207l-58 301h-307l-57 -301h-201zM143 1798q0 49 34 84t85 35q45 0 79 -34t34 -79q0 -47 -33 -82.5t-80 -35.5q-49 0 -84 31.5t-35 80.5zM297 461h246l-41 223l-78 561h-4zM473 1798q0 49 34 84t85 35q45 0 79 -34t34 -79q0 -47 -33 -82.5 t-80 -35.5q-49 0 -84 31.5t-35 80.5z" />
<glyph unicode="&#xc5;" horiz-adv-x="847" d="M8 0l336 1544h162l332 -1544h-207l-58 301h-307l-57 -301h-201zM258 1763q0 72 48 122t118 50t119 -50t49 -122q0 -66 -49 -113.5t-115 -47.5q-70 0 -120 45.5t-50 115.5zM297 461h246l-41 223l-78 561h-4zM354 1765q0 -29 21.5 -48t52.5 -19q27 0 47.5 20.5t20.5 46.5 q0 31 -19.5 52.5t-52.5 21.5q-31 0 -50.5 -21.5t-19.5 -52.5z" />
<glyph unicode="&#xc6;" horiz-adv-x="1159" d="M0 0l328 1544h512l39 -178h-336l106 -489h305l39 -179h-305l119 -520h330l41 -178h-537l-61 301h-322l-57 -301h-201zM289 461h260l-68 325l-65 465h-4z" />
<glyph unicode="&#xc7;" horiz-adv-x="755" d="M86 748q0 817 459 817q100 0 178 -45v-187q-78 39 -131 39q-68 0 -120 -29.5t-83 -88t-49 -114t-25.5 -137t-9.5 -127t-2 -114.5q0 -590 297 -590q63 0 123 31v-180q-68 -43 -164 -43q-473 0 -473 768zM309 -395l127 291l135 -66l-174 -272z" />
<glyph unicode="&#xc8;" horiz-adv-x="710" d="M125 0v1544h551v-178h-346v-485h309v-179h-309v-524h346v-178h-551zM205 1888l137 88l168 -305l-102 -59z" />
<glyph unicode="&#xc9;" horiz-adv-x="710" d="M125 0v1544h551v-178h-346v-485h309v-179h-309v-524h346v-178h-551zM297 1671l168 305l137 -88l-203 -276z" />
<glyph unicode="&#xca;" horiz-adv-x="710" d="M125 0v1544h551v-178h-346v-485h309v-179h-309v-524h346v-178h-551zM127 1698l258 287l252 -287l-96 -78l-160 170l-148 -170z" />
<glyph unicode="&#xcb;" horiz-adv-x="710" d="M106 1798q0 49 34 84t85 35q45 0 79 -34t34 -79q0 -47 -33 -82.5t-80 -35.5q-49 0 -84 31.5t-35 80.5zM125 0v1544h551v-178h-346v-485h309v-179h-309v-524h346v-178h-551zM436 1798q0 49 34 84t85 35q45 0 79 -34t34 -79q0 -47 -33 -82.5t-80 -35.5q-49 0 -84 31.5 t-35 80.5z" />
<glyph unicode="&#xcc;" horiz-adv-x="454" d="M45 1888l137 88l168 -305l-102 -59zM125 0v1544h205v-1544h-205z" />
<glyph unicode="&#xcd;" horiz-adv-x="454" d="M106 1671l168 305l138 -88l-203 -276zM125 0v1544h205v-1544h-205z" />
<glyph unicode="&#xce;" horiz-adv-x="454" d="M-27 1698l258 287l252 -287l-96 -78l-160 170l-147 -170zM125 0v1544h205v-1544h-205z" />
<glyph unicode="&#xcf;" horiz-adv-x="454" d="M-53 1798q0 49 33.5 84t85.5 35q45 0 78.5 -34t33.5 -79q0 -47 -32.5 -82.5t-79.5 -35.5q-49 0 -84 31.5t-35 80.5zM125 0v1544h205v-1544h-205zM276 1798q0 49 34 84t85 35q45 0 79 -34t34 -79q0 -47 -33 -82.5t-80 -35.5q-49 0 -84 31.5t-35 80.5z" />
<glyph unicode="&#xd0;" horiz-adv-x="954" d="M-18 702v179h143v663h229q68 0 115 -4t105.5 -21.5t97.5 -49t80 -91t64.5 -142.5t38.5 -208t15 -283q0 -119 -10 -216t-25.5 -169.5t-45 -129t-57 -94.5t-74 -63.5t-83 -40t-96 -21.5t-101.5 -9t-112 -2h-141v702h-143zM330 174q59 -2 106 8.5t81 36t57.5 51t38 75.5 t23.5 85t12 100.5t4 103.5t1 111q0 88 -1 134.5t-7 126t-17.5 122.5t-35 99.5t-57 83t-86 45t-119.5 14.5v-489h143v-179h-143v-528z" />
<glyph unicode="&#xd1;" horiz-adv-x="966" d="M125 0v1544h197l360 -1173l4 4l-49 618v551h205v-1544h-191l-360 1190l-4 -4l12 -101l31 -518v-567h-205zM227 1722q2 84 39 143.5t115 59.5q51 0 114.5 -33.5t92.5 -33.5q35 0 39 59h114q2 -86 -33.5 -144.5t-117.5 -58.5q-41 0 -104.5 33t-88.5 33q-49 0 -45 -58h-125z " />
<glyph unicode="&#xd2;" horiz-adv-x="974" d="M86 772q0 82 1 133t9 143.5t22.5 154t44.5 136t70.5 119.5t106.5 76t147.5 31t147 -31t106.5 -76t71 -119.5t44 -136t22.5 -154t9.5 -143.5t1 -133t-1 -133t-9.5 -143.5t-22.5 -153.5t-44 -136t-71 -120t-106.5 -75.5t-147 -30.5t-147.5 30.5t-106.5 75.5t-70.5 120 t-44.5 136t-22.5 153.5t-9 143.5t-1 133zM285 1888l137 88l168 -305l-103 -59zM303 772q0 -291 37 -445.5t147.5 -154.5t147.5 154.5t37 445.5t-37 445.5t-147.5 154.5t-147.5 -154.5t-37 -445.5z" />
<glyph unicode="&#xd3;" horiz-adv-x="974" d="M86 772q0 82 1 133t9 143.5t22.5 154t44.5 136t70.5 119.5t106.5 76t147.5 31t147 -31t106.5 -76t71 -119.5t44 -136t22.5 -154t9.5 -143.5t1 -133t-1 -133t-9.5 -143.5t-22.5 -153.5t-44 -136t-71 -120t-106.5 -75.5t-147 -30.5t-147.5 30.5t-106.5 75.5t-70.5 120 t-44.5 136t-22.5 153.5t-9 143.5t-1 133zM303 772q0 -291 37 -445.5t147.5 -154.5t147.5 154.5t37 445.5t-37 445.5t-147.5 154.5t-147.5 -154.5t-37 -445.5zM387 1671l168 305l137 -88l-203 -276z" />
<glyph unicode="&#xd4;" horiz-adv-x="974" d="M86 772q0 82 1 133t9 143.5t22.5 154t44.5 136t70.5 119.5t106.5 76t147.5 31t147 -31t106.5 -76t71 -119.5t44 -136t22.5 -154t9.5 -143.5t1 -133t-1 -133t-9.5 -143.5t-22.5 -153.5t-44 -136t-71 -120t-106.5 -75.5t-147 -30.5t-147.5 30.5t-106.5 75.5t-70.5 120 t-44.5 136t-22.5 153.5t-9 143.5t-1 133zM233 1698l259 287l251 -287l-96 -78l-160 170l-147 -170zM303 772q0 -291 37 -445.5t147.5 -154.5t147.5 154.5t37 445.5t-37 445.5t-147.5 154.5t-147.5 -154.5t-37 -445.5z" />
<glyph unicode="&#xd5;" horiz-adv-x="974" d="M86 772q0 82 1 133t9 143.5t22.5 154t44.5 136t70.5 119.5t106.5 76t147.5 31t147 -31t106.5 -76t71 -119.5t44 -136t22.5 -154t9.5 -143.5t1 -133t-1 -133t-9.5 -143.5t-22.5 -153.5t-44 -136t-71 -120t-106.5 -75.5t-147 -30.5t-147.5 30.5t-106.5 75.5t-70.5 120 t-44.5 136t-22.5 153.5t-9 143.5t-1 133zM231 1722q2 84 39 143.5t115 59.5q51 0 114.5 -33.5t92.5 -33.5q35 0 39 59h114q2 -86 -33.5 -144.5t-117.5 -58.5q-41 0 -104.5 33t-88.5 33q-49 0 -45 -58h-125zM303 772q0 -291 37 -445.5t147.5 -154.5t147.5 154.5t37 445.5 t-37 445.5t-147.5 154.5t-147.5 -154.5t-37 -445.5z" />
<glyph unicode="&#xd6;" horiz-adv-x="974" d="M86 772q0 82 1 133t9 143.5t22.5 154t44.5 136t70.5 119.5t106.5 76t147.5 31t147 -31t106.5 -76t71 -119.5t44 -136t22.5 -154t9.5 -143.5t1 -133t-1 -133t-9.5 -143.5t-22.5 -153.5t-44 -136t-71 -120t-106.5 -75.5t-147 -30.5t-147.5 30.5t-106.5 75.5t-70.5 120 t-44.5 136t-22.5 153.5t-9 143.5t-1 133zM207 1798q0 49 33.5 84t85.5 35q45 0 78.5 -34t33.5 -79q0 -47 -32.5 -82.5t-79.5 -35.5q-49 0 -84 31.5t-35 80.5zM303 772q0 -291 37 -445.5t147.5 -154.5t147.5 154.5t37 445.5t-37 445.5t-147.5 154.5t-147.5 -154.5t-37 -445.5 zM537 1798q0 49 33.5 84t84.5 35q45 0 79 -34t34 -79q0 -47 -33 -82.5t-80 -35.5q-49 0 -83.5 31.5t-34.5 80.5z" />
<glyph unicode="&#xd8;" horiz-adv-x="974" d="M43 -8l113 229q-70 176 -70 551q0 82 1 133t9 143.5t22.5 154t44.5 136t70.5 119.5t106.5 76t147 31q172 0 269 -129l73 147l103 -47l-109 -223q66 -174 66 -541q0 -82 -1 -133t-9.5 -143.5t-22.5 -153.5t-44 -136t-71 -120t-106.5 -75.5t-147.5 -30.5q-168 0 -262 120 l-78 -155zM303 772q0 -129 6 -240l330 666q-43 174 -152 174q-111 0 -147.5 -154.5t-36.5 -445.5zM340 332q43 -160 147 -160q111 0 148 154.5t37 445.5q0 117 -6 221z" />
<glyph unicode="&#xd9;" horiz-adv-x="956" d="M125 479v1065h205v-1132q0 -139 36.5 -189.5t106.5 -50.5q96 0 125 52t31 165v1155h205v-1095q0 -61 -1.5 -92t-7.5 -89.5t-18 -90.5t-39 -76t-63.5 -66.5t-94 -38.5t-131.5 -16q-94 0 -161.5 26.5t-104.5 67.5t-57.5 110.5t-25.5 134t-5 160.5zM266 1888l137 88 l168 -305l-102 -59z" />
<glyph unicode="&#xda;" horiz-adv-x="956" d="M125 479v1065h205v-1132q0 -139 36.5 -189.5t106.5 -50.5q96 0 125 52t31 165v1155h205v-1095q0 -61 -1.5 -92t-7.5 -89.5t-18 -90.5t-39 -76t-63.5 -66.5t-94 -38.5t-131.5 -16q-94 0 -161.5 26.5t-104.5 67.5t-57.5 110.5t-25.5 134t-5 160.5zM389 1671l168 305 l137 -88l-202 -276z" />
<glyph unicode="&#xdb;" horiz-adv-x="956" d="M125 479v1065h205v-1132q0 -139 36.5 -189.5t106.5 -50.5q96 0 125 52t31 165v1155h205v-1095q0 -61 -1.5 -92t-7.5 -89.5t-18 -90.5t-39 -76t-63.5 -66.5t-94 -38.5t-131.5 -16q-94 0 -161.5 26.5t-104.5 67.5t-57.5 110.5t-25.5 134t-5 160.5zM225 1698l258 287 l252 -287l-96 -78l-160 170l-147 -170z" />
<glyph unicode="&#xdc;" horiz-adv-x="956" d="M125 479v1065h205v-1132q0 -139 36.5 -189.5t106.5 -50.5q96 0 125 52t31 165v1155h205v-1095q0 -61 -1.5 -92t-7.5 -89.5t-18 -90.5t-39 -76t-63.5 -66.5t-94 -38.5t-131.5 -16q-94 0 -161.5 26.5t-104.5 67.5t-57.5 110.5t-25.5 134t-5 160.5zM199 1798q0 49 33.5 84 t84.5 35q45 0 79 -34t34 -79q0 -47 -32.5 -82.5t-80.5 -35.5q-49 0 -83.5 31.5t-34.5 80.5zM528 1798q0 49 34 84t85 35q45 0 79 -34t34 -79q0 -47 -33 -82.5t-80 -35.5q-49 0 -84 31.5t-35 80.5z" />
<glyph unicode="&#xdd;" horiz-adv-x="802" d="M4 1544h221l189 -715h4l33 199l131 516h219l-287 -878v-666h-205v666zM332 1671l168 305l137 -88l-203 -276z" />
<glyph unicode="&#xde;" horiz-adv-x="811" d="M125 0v1544h205v-307q55 0 93 -2t89 -10t84 -24.5t69.5 -47.5t57 -74t35 -108.5t14.5 -147.5q0 -240 -103.5 -347t-338.5 -99v-377h-205zM330 551q127 -8 176 55.5t49 200.5q0 256 -197 256h-28v-512z" />
<glyph unicode="&#xdf;" horiz-adv-x="870" d="M43 883v151h88v291q0 193 61.5 292t241.5 99q178 0 254 -87t76 -267q0 -256 -146 -303v-4q39 -10 69 -36t48.5 -51.5t31.5 -74.5t19.5 -75.5t9.5 -88t3 -81.5v-81q0 -109 -3 -175t-13.5 -139t-31 -113t-55 -75.5t-88 -50t-127.5 -14.5h-67v172h28q31 0 53.5 5t39 20.5 t28.5 28t19.5 43t11.5 51t6 65.5t2 73v87v10v25q0 57 -1 87.5t-6 85t-18.5 86t-35 65.5t-59.5 49.5t-89 13.5v172q106 -6 140 48t34 167q0 190 -125 190q-20 0 -37.5 -5t-30 -17.5t-21.5 -22.5t-14 -31.5t-9 -33t-5 -37t-1 -32.5v-34v-24v-1307h-193v883h-88z" />
<glyph unicode="&#xe0;" horiz-adv-x="778" d="M59 530q0 72 2 123.5t15.5 133t38 133t75 91.5t119.5 40q125 0 185 -131h4v114h192v-1034h-192v133h-4q-33 -76 -74 -112.5t-117 -36.5q-57 0 -101 27.5t-68.5 78.5t-41 102.5t-23 123t-8.5 113.5t-2 101zM197 1440l137 88l168 -305l-103 -60zM256 437q0 -17 1 -51 t5 -55.5t9 -51t15.5 -49t23 -38t31.5 -27.5t42 -9q123 0 121 348v14q0 256 -55 326q-27 35 -66 35q-23 0 -42 -9.5t-31.5 -28t-23 -38t-15.5 -49t-9 -51t-5 -55.5t-1 -50v-46v-34v-34v-47z" />
<glyph unicode="&#xe1;" horiz-adv-x="778" d="M59 530q0 72 2 123.5t15.5 133t38 133t75 91.5t119.5 40q125 0 185 -131h4v114h192v-1034h-192v133h-4q-33 -76 -74 -112.5t-117 -36.5q-57 0 -101 27.5t-68.5 78.5t-41 102.5t-23 123t-8.5 113.5t-2 101zM256 437q0 -17 1 -51t5 -55.5t9 -51t15.5 -49t23 -38t31.5 -27.5 t42 -9q123 0 121 348v14q0 256 -55 326q-27 35 -66 35q-23 0 -42 -9.5t-31.5 -28t-23 -38t-15.5 -49t-9 -51t-5 -55.5t-1 -50v-46v-34v-34v-47zM299 1223l168 305l137 -88l-203 -277z" />
<glyph unicode="&#xe2;" horiz-adv-x="778" d="M59 530q0 72 2 123.5t15.5 133t38 133t75 91.5t119.5 40q125 0 185 -131h4v114h192v-1034h-192v133h-4q-33 -76 -74 -112.5t-117 -36.5q-57 0 -101 27.5t-68.5 78.5t-41 102.5t-23 123t-8.5 113.5t-2 101zM135 1249l258 287l252 -287l-96 -78l-160 170l-147 -170z M256 437q0 -17 1 -51t5 -55.5t9 -51t15.5 -49t23 -38t31.5 -27.5t42 -9q123 0 121 348v14q0 256 -55 326q-27 35 -66 35q-23 0 -42 -9.5t-31.5 -28t-23 -38t-15.5 -49t-9 -51t-5 -55.5t-1 -50v-46v-34v-34v-47z" />
<glyph unicode="&#xe3;" horiz-adv-x="778" d="M59 530q0 72 2 123.5t15.5 133t38 133t75 91.5t119.5 40q125 0 185 -131h4v114h192v-1034h-192v133h-4q-33 -76 -74 -112.5t-117 -36.5q-57 0 -101 27.5t-68.5 78.5t-41 102.5t-23 123t-8.5 113.5t-2 101zM133 1274q2 84 39 143.5t115 59.5q51 0 114.5 -34t92.5 -34 q35 0 38 59h115q2 -86 -33.5 -144t-117.5 -58q-41 0 -104.5 32.5t-88.5 32.5q-49 0 -45 -57h-125zM256 437q0 -17 1 -51t5 -55.5t9 -51t15.5 -49t23 -38t31.5 -27.5t42 -9q123 0 121 348v14q0 256 -55 326q-27 35 -66 35q-23 0 -42 -9.5t-31.5 -28t-23 -38t-15.5 -49t-9 -51 t-5 -55.5t-1 -50v-46v-34v-34v-47z" />
<glyph unicode="&#xe4;" horiz-adv-x="778" d="M59 530q0 72 2 123.5t15.5 133t38 133t75 91.5t119.5 40q125 0 185 -131h4v114h192v-1034h-192v133h-4q-33 -76 -74 -112.5t-117 -36.5q-57 0 -101 27.5t-68.5 78.5t-41 102.5t-23 123t-8.5 113.5t-2 101zM109 1349.5q0 49.5 33.5 84t84.5 34.5q45 0 79 -33.5t34 -78.5 q0 -47 -33 -83t-80 -36q-49 0 -83.5 31.5t-34.5 81zM256 437q0 -17 1 -51t5 -55.5t9 -51t15.5 -49t23 -38t31.5 -27.5t42 -9q123 0 121 348v14q0 256 -55 326q-27 35 -66 35q-23 0 -42 -9.5t-31.5 -28t-23 -38t-15.5 -49t-9 -51t-5 -55.5t-1 -50v-46v-34v-34v-47z M438 1349.5q0 49.5 34 84t85 34.5q45 0 79 -33.5t34 -78.5q0 -47 -33 -83t-80 -36q-49 0 -84 31.5t-35 81z" />
<glyph unicode="&#xe5;" horiz-adv-x="778" d="M59 530q0 72 2 123.5t15.5 133t38 133t75 91.5t119.5 40q125 0 185 -131h4v114h192v-1034h-192v133h-4q-33 -76 -74 -112.5t-117 -36.5q-57 0 -101 27.5t-68.5 78.5t-41 102.5t-23 123t-8.5 113.5t-2 101zM223 1356q0 72 48 122t118 50t119 -50.5t49 -121.5 q0 -66 -49 -114t-115 -48q-70 0 -120 46t-50 116zM256 437q0 -17 1 -51t5 -55.5t9 -51t15.5 -49t23 -38t31.5 -27.5t42 -9q123 0 121 348v14q0 256 -55 326q-27 35 -66 35q-23 0 -42 -9.5t-31.5 -28t-23 -38t-15.5 -49t-9 -51t-5 -55.5t-1 -50v-46v-34v-34v-47zM319 1358 q0 -29 21.5 -48.5t52.5 -19.5q27 0 47.5 20.5t20.5 47.5q0 31 -19.5 52.5t-52.5 21.5q-31 0 -50.5 -21.5t-19.5 -52.5z" />
<glyph unicode="&#xe6;" horiz-adv-x="1148" d="M59 305q0 70 11.5 128.5t37 114.5t78 88t125.5 32q115 0 162 -68l4 4v88q-6 90 -42 132t-128 42q-102 0 -196 -59v190q100 53 211 54q184 0 241 -133q70 133 219 133q309 0 310 -506v-68h-428q0 -8 1 -68.5t6 -92t16 -77.5t39 -69t69 -23q61 0 87.5 54.5t24.5 115.5v37 h183q-8 -371 -293 -370q-193 0 -252 161q-59 -162 -228 -161q-137 0 -197.5 89t-60.5 232zM252 336q0 -199 117 -199q121 0 120 193q0 186 -122 186q-115 0 -115 -180zM666 616h233v46q0 225 -115 225q-119 0 -118 -225v-46z" />
<glyph unicode="&#xe7;" horiz-adv-x="569" d="M59 508q0 63 3.5 115.5t13.5 119t31.5 117.5t53.5 96t85 70t121 25q82 0 153 -35v-195h-4q-31 47 -90 49q-170 -2 -170 -344q0 -362 166 -362q45 0 98 39v-178q-70 -41 -155 -41q-306 0 -306 524zM184 -395l127 291l135 -66l-174 -272z" />
<glyph unicode="&#xe8;" horiz-adv-x="739" d="M59 510q0 63 3.5 114.5t13.5 118t31.5 117.5t54.5 96t86 70t121 25q313 0 313 -541v-31h-426q0 -324 121 -323.5t121 192.5h178q0 -158 -74 -261t-227 -103q-82 0 -143.5 34.5t-93.5 86t-50 127t-23.5 138t-5.5 140.5zM158 1440l137 88l168 -305l-103 -60zM256 616h229 q0 262 -116 263q-41 0 -65.5 -24t-34 -71t-11.5 -75.5t-2 -77.5v-15z" />
<glyph unicode="&#xe9;" horiz-adv-x="739" d="M59 510q0 63 3.5 114.5t13.5 118t31.5 117.5t54.5 96t86 70t121 25q313 0 313 -541v-31h-426q0 -324 121 -323.5t121 192.5h178q0 -158 -74 -261t-227 -103q-82 0 -143.5 34.5t-93.5 86t-50 127t-23.5 138t-5.5 140.5zM256 616h229q0 262 -116 263q-41 0 -65.5 -24 t-34 -71t-11.5 -75.5t-2 -77.5v-15zM281 1223l168 305l137 -88l-203 -277z" />
<glyph unicode="&#xea;" horiz-adv-x="739" d="M59 510q0 63 3.5 114.5t13.5 118t31.5 117.5t54.5 96t86 70t121 25q313 0 313 -541v-31h-426q0 -324 121 -323.5t121 192.5h178q0 -158 -74 -261t-227 -103q-82 0 -143.5 34.5t-93.5 86t-50 127t-23.5 138t-5.5 140.5zM117 1249l258 287l252 -287l-97 -78l-159 170 l-148 -170zM256 616h229q0 262 -116 263q-41 0 -65.5 -24t-34 -71t-11.5 -75.5t-2 -77.5v-15z" />
<glyph unicode="&#xeb;" horiz-adv-x="739" d="M59 510q0 63 3.5 114.5t13.5 118t31.5 117.5t54.5 96t86 70t121 25q313 0 313 -541v-31h-426q0 -324 121 -323.5t121 192.5h178q0 -158 -74 -261t-227 -103q-82 0 -143.5 34.5t-93.5 86t-50 127t-23.5 138t-5.5 140.5zM90 1349.5q0 49.5 34 84t85 34.5q45 0 79 -33.5 t34 -78.5q0 -47 -33 -83t-80 -36q-49 0 -84 31.5t-35 81zM256 616h229q0 262 -116 263q-41 0 -65.5 -24t-34 -71t-11.5 -75.5t-2 -77.5v-15zM420 1349.5q0 49.5 33.5 84t85.5 34.5q45 0 78.5 -33.5t33.5 -78.5q0 -47 -32.5 -83t-79.5 -36q-49 0 -84 31.5t-35 81z" />
<glyph unicode="&#xec;" horiz-adv-x="368" d="M2 1440l137 88l168 -305l-102 -60zM88 0v1034h193v-1034h-193z" />
<glyph unicode="&#xed;" horiz-adv-x="368" d="M63 1223l168 305l138 -88l-203 -277zM88 0v1034h193v-1034h-193z" />
<glyph unicode="&#xee;" horiz-adv-x="368" d="M-70 1249l258 287l252 -287l-96 -78l-160 170l-147 -170zM88 0v1034h193v-1034h-193z" />
<glyph unicode="&#xef;" horiz-adv-x="368" d="M-96 1349.5q0 49.5 33.5 84t85.5 34.5q45 0 78.5 -33.5t33.5 -78.5q0 -47 -32.5 -83t-79.5 -36q-49 0 -84 31.5t-35 81zM88 0v1034h193v-1034h-193zM233 1349.5q0 49.5 34 84t85 34.5q45 0 79 -33.5t34 -78.5q0 -47 -33 -83t-80 -36q-49 0 -84 31.5t-35 81z" />
<glyph unicode="&#xf0;" horiz-adv-x="768" d="M59 514q0 74 5.5 133.5t25 131t52 119.5t93 82t142.5 34q59 0 100 -23q-43 141 -133 291l-151 -74l-64 103l158 73q-119 186 -189 275l154 57q82 -102 184 -258l150 78l65 -102l-155 -78q215 -348 215 -819q0 -92 -5.5 -161t-24.5 -147.5t-53 -128t-95.5 -83 t-147.5 -33.5q-84 0 -146.5 34.5t-96 86t-53 127t-25 139t-5.5 143.5zM256 514q0 -86 4 -140.5t16.5 -108.5t39 -79.5t69.5 -25.5q45 0 73.5 27.5t40 89t13.5 106.5t2 131q0 55 -1 85t-4 80t-11.5 78.5t-21.5 59.5t-36.5 45.5t-54.5 14.5q-45 0 -72.5 -30t-39 -91.5 t-14.5 -110.5t-3 -131z" />
<glyph unicode="&#xf1;" horiz-adv-x="794" d="M90 0v1034h193v-119h4q35 66 82 99q53 37 127 37q59 0 100 -21.5t62.5 -51.5t32.5 -81t13.5 -89t2.5 -97v-711h-193v715q0 164 -115 164q-41 0 -67.5 -18.5t-35.5 -58.5t-11 -65.5t-2 -72.5v-19v-645h-193zM129 1274q2 84 39 143.5t115 59.5q51 0 114.5 -34t91.5 -34 q35 0 39 59h115q2 -86 -34 -144t-117 -58q-41 0 -104.5 32.5t-88.5 32.5q-49 0 -45 -57h-125z" />
<glyph unicode="&#xf2;" horiz-adv-x="768" d="M59 514q0 80 5.5 143.5t25 141.5t53 129t96 87t146.5 36t146.5 -36t96.5 -87t53 -129t24.5 -141.5t5.5 -143.5q0 -78 -5.5 -140.5t-24.5 -139t-53 -128t-96.5 -87t-146.5 -35.5t-146.5 35.5t-96 87t-53 128t-25 139t-5.5 140.5zM203 1440l137 88l168 -305l-102 -60z M256 439q0 -17 1 -49t4 -54.5t9 -52t16.5 -49t23 -38t31.5 -27.5t44 -9t44.5 9t31.5 27.5t22.5 38t16.5 49t9 52t4 54.5t1 49v44v31v34v45q0 17 -1 50t-4 55.5t-9 52t-16.5 49t-22.5 38t-31.5 27.5t-44.5 9t-44 -9t-31.5 -27.5t-23 -38t-16.5 -49t-9 -52t-4 -55.5t-1 -50 v-45v-34v-31v-44z" />
<glyph unicode="&#xf3;" horiz-adv-x="768" d="M59 514q0 80 5.5 143.5t25 141.5t53 129t96 87t146.5 36t146.5 -36t96.5 -87t53 -129t24.5 -141.5t5.5 -143.5q0 -78 -5.5 -140.5t-24.5 -139t-53 -128t-96.5 -87t-146.5 -35.5t-146.5 35.5t-96 87t-53 128t-25 139t-5.5 140.5zM256 439q0 -17 1 -49t4 -54.5t9 -52 t16.5 -49t23 -38t31.5 -27.5t44 -9t44.5 9t31.5 27.5t22.5 38t16.5 49t9 52t4 54.5t1 49v44v31v34v45q0 17 -1 50t-4 55.5t-9 52t-16.5 49t-22.5 38t-31.5 27.5t-44.5 9t-44 -9t-31.5 -27.5t-23 -38t-16.5 -49t-9 -52t-4 -55.5t-1 -50v-45v-34v-31v-44zM264 1223l168 305 l137 -88l-202 -277z" />
<glyph unicode="&#xf4;" horiz-adv-x="768" d="M59 514q0 80 5.5 143.5t25 141.5t53 129t96 87t146.5 36t146.5 -36t96.5 -87t53 -129t24.5 -141.5t5.5 -143.5q0 -78 -5.5 -140.5t-24.5 -139t-53 -128t-96.5 -87t-146.5 -35.5t-146.5 35.5t-96 87t-53 128t-25 139t-5.5 140.5zM131 1249l258 287l252 -287l-96 -78 l-160 170l-147 -170zM256 439q0 -17 1 -49t4 -54.5t9 -52t16.5 -49t23 -38t31.5 -27.5t44 -9t44.5 9t31.5 27.5t22.5 38t16.5 49t9 52t4 54.5t1 49v44v31v34v45q0 17 -1 50t-4 55.5t-9 52t-16.5 49t-22.5 38t-31.5 27.5t-44.5 9t-44 -9t-31.5 -27.5t-23 -38t-16.5 -49 t-9 -52t-4 -55.5t-1 -50v-45v-34v-31v-44z" />
<glyph unicode="&#xf5;" horiz-adv-x="768" d="M59 514q0 80 5.5 143.5t25 141.5t53 129t96 87t146.5 36t146.5 -36t96.5 -87t53 -129t24.5 -141.5t5.5 -143.5q0 -78 -5.5 -140.5t-24.5 -139t-53 -128t-96.5 -87t-146.5 -35.5t-146.5 35.5t-96 87t-53 128t-25 139t-5.5 140.5zM129 1274q2 84 39 143.5t115 59.5 q51 0 114.5 -34t91.5 -34q35 0 39 59h115q2 -86 -34 -144t-117 -58q-41 0 -104.5 32.5t-88.5 32.5q-49 0 -45 -57h-125zM256 439q0 -17 1 -49t4 -54.5t9 -52t16.5 -49t23 -38t31.5 -27.5t44 -9t44.5 9t31.5 27.5t22.5 38t16.5 49t9 52t4 54.5t1 49v44v31v34v45q0 17 -1 50 t-4 55.5t-9 52t-16.5 49t-22.5 38t-31.5 27.5t-44.5 9t-44 -9t-31.5 -27.5t-23 -38t-16.5 -49t-9 -52t-4 -55.5t-1 -50v-45v-34v-31v-44z" />
<glyph unicode="&#xf6;" horiz-adv-x="768" d="M59 514q0 80 5.5 143.5t25 141.5t53 129t96 87t146.5 36t146.5 -36t96.5 -87t53 -129t24.5 -141.5t5.5 -143.5q0 -78 -5.5 -140.5t-24.5 -139t-53 -128t-96.5 -87t-146.5 -35.5t-146.5 35.5t-96 87t-53 128t-25 139t-5.5 140.5zM104 1349.5q0 49.5 34 84t85 34.5 q45 0 79 -33.5t34 -78.5q0 -47 -33 -83t-80 -36q-49 0 -84 31.5t-35 81zM256 439q0 -17 1 -49t4 -54.5t9 -52t16.5 -49t23 -38t31.5 -27.5t44 -9t44.5 9t31.5 27.5t22.5 38t16.5 49t9 52t4 54.5t1 49v44v31v34v45q0 17 -1 50t-4 55.5t-9 52t-16.5 49t-22.5 38t-31.5 27.5 t-44.5 9t-44 -9t-31.5 -27.5t-23 -38t-16.5 -49t-9 -52t-4 -55.5t-1 -50v-45v-34v-31v-44zM434 1349.5q0 49.5 34 84t85 34.5q45 0 79 -33.5t34 -78.5q0 -47 -33 -83t-80 -36q-49 0 -84 31.5t-35 81z" />
<glyph unicode="&#xf7;" horiz-adv-x="1024" d="M90 453v143h846v-143h-846zM430 10v205h162v-205h-162zM430 834v204h162v-204h-162z" />
<glyph unicode="&#xf8;" horiz-adv-x="768" d="M39 33l80 127q-59 131 -60 377q0 98 11.5 176t41 160.5t98.5 130t169 47.5q137 0 219 -84l66 104l81 -49l-90 -148q55 -133 56 -380q0 -510 -326 -510q-131 0 -215 84l-51 -86zM256 561l6 -158h4l219 388q-14 47 -36.5 69.5t-65.5 22.5q-31 0 -55.5 -16.5t-36.5 -51.5 t-20.5 -60.5t-11.5 -76.5t-3 -64v-53zM287 244q29 -92 104 -92q23 0 41.5 8t30.5 24.5t21.5 34t15.5 45t9 48t4 51t1 46.5v43v33l-2 148h-4z" />
<glyph unicode="&#xf9;" horiz-adv-x="796" d="M90 377v657h193v-647v-31v-35q0 -7 1 -33t5 -34t9 -28.5t14.5 -28t21.5 -18.5t29.5 -15t38 -4t38 4t28.5 13t20.5 17.5t14.5 26t8 27.5t4 31.5t1 31.5v35v31v657h193v-698q0 -172 -67 -262t-232 -90q-195 0 -257.5 96t-62.5 297zM186 1440l138 88l168 -305l-103 -60z" />
<glyph unicode="&#xfa;" horiz-adv-x="796" d="M90 377v657h193v-647v-31v-35q0 -7 1 -33t5 -34t9 -28.5t14.5 -28t21.5 -18.5t29.5 -15t38 -4t38 4t28.5 13t20.5 17.5t14.5 26t8 27.5t4 31.5t1 31.5v35v31v657h193v-698q0 -172 -67 -262t-232 -90q-195 0 -257.5 96t-62.5 297zM309 1223l168 305l137 -88l-202 -277z " />
<glyph unicode="&#xfb;" horiz-adv-x="796" d="M90 377v657h193v-647v-31v-35q0 -7 1 -33t5 -34t9 -28.5t14.5 -28t21.5 -18.5t29.5 -15t38 -4t38 4t28.5 13t20.5 17.5t14.5 26t8 27.5t4 31.5t1 31.5v35v31v657h193v-698q0 -172 -67 -262t-232 -90q-195 0 -257.5 96t-62.5 297zM145 1249l258 287l252 -287l-96 -78 l-160 170l-147 -170z" />
<glyph unicode="&#xfc;" horiz-adv-x="796" d="M90 377v657h193v-647v-31v-35q0 -7 1 -33t5 -34t9 -28.5t14.5 -28t21.5 -18.5t29.5 -15t38 -4t38 4t28.5 13t20.5 17.5t14.5 26t8 27.5t4 31.5t1 31.5v35v31v657h193v-698q0 -172 -67 -262t-232 -90q-195 0 -257.5 96t-62.5 297zM119 1349.5q0 49.5 33.5 84t85.5 34.5 q45 0 78.5 -33.5t33.5 -78.5q0 -47 -32.5 -83t-79.5 -36q-49 0 -84 31.5t-35 81zM449 1349.5q0 49.5 33.5 84t84.5 34.5q45 0 79 -33.5t34 -78.5q0 -47 -33 -83t-80 -36q-49 0 -83.5 31.5t-34.5 81z" />
<glyph unicode="&#xfd;" horiz-adv-x="763" d="M8 1034h215l152 -721h4l174 721h195l-422 -1458h-203l160 508zM313 1223l168 305l137 -88l-202 -277z" />
<glyph unicode="&#xfe;" horiz-adv-x="778" d="M88 -424v1847h193v-522h4q31 74 73.5 112t116.5 38q49 0 89 -22.5t64.5 -55.5t43 -85t27 -96t13.5 -105.5t6 -96.5t1 -84q0 -72 -2 -123t-15.5 -133t-38 -134.5t-74.5 -92t-120 -39.5q-72 0 -113 32.5t-71 100.5h-4v-541h-193zM274 516q0 -256 56 -326q27 -35 65 -34 q80 0 103.5 95t23.5 265v34v46q0 16 -1 50t-5 56.5t-9 52t-15.5 49t-22.5 38t-31.5 28t-42.5 9.5q-123 0 -121 -349v-14z" />
<glyph unicode="&#xff;" horiz-adv-x="763" d="M8 1034h215l152 -721h4l174 721h195l-422 -1458h-203l160 508zM102 1349.5q0 49.5 34 84t85 34.5q45 0 79 -33.5t34 -78.5q0 -47 -33 -83t-80 -36q-49 0 -84 31.5t-35 81zM432 1349.5q0 49.5 34 84t85 34.5q45 0 79 -33.5t34 -78.5q0 -47 -33 -83t-80 -36q-49 0 -84 31.5 t-35 81z" />
<glyph unicode="&#x131;" horiz-adv-x="368" d="M88 0v1034h193v-1034h-193z" />
<glyph unicode="&#x152;" horiz-adv-x="1224" d="M88 764v27v96q0 35 3 105.5t9 115.5t18.5 111.5t30 109.5t45 92t62.5 77t84 47.5t106 19.5q166 0 222 -142h4v121h536v-178h-342v-483h316v-178h-316v-527h353v-178h-537v123h-4q-68 -143 -234 -143q-74 0 -132 32.5t-95 78.5t-63.5 124t-39 137.5t-18.5 152.5t-7 138 t-1 121zM304 653.5q1 -28.5 2 -83t6 -93.5t13.5 -89t22.5 -84t32.5 -65.5t46.5 -48t60 -16.5q66 0 107 42t56.5 140.5t17.5 158.5t2 192v69q0 14 2 72.5t2 104.5t-3 113t-14.5 117t-31 97t-55 72.5t-83.5 25.5q-102 0 -142 -131t-40 -471q0 -6 -1 -50t0 -72.5z" />
<glyph unicode="&#x153;" horiz-adv-x="1189" d="M59 539q0 512 324 512q72 0 133.5 -43t85.5 -117h4q25 76 84.5 118t130.5 42q82 0 142.5 -37t92 -89.5t50 -132t23 -142t4.5 -140.5v-31h-437l2 -12q8 -182 41 -244q31 -63 90 -63q119 0 123 190h176q-4 -160 -79.5 -263t-227.5 -103q-147 6 -221 163q-66 -158 -225 -163 q-84 0 -145.5 37.5t-93.5 92t-50 136.5t-22.5 144.5t-4.5 144.5zM256 516q0 -356 129 -356q125 0 125 356v12q2 348 -125 349q-131 0 -129 -345v-16zM700 612h236q0 274 -121 275q-43 0 -69.5 -29t-33.5 -69.5t-11.5 -85t-0.5 -74.5v-17z" />
<glyph unicode="&#x178;" horiz-adv-x="802" d="M4 1544h221l189 -715h4l33 199l131 516h219l-287 -878v-666h-205v666zM121 1798q0 49 33.5 84t85.5 35q45 0 78.5 -34t33.5 -79q0 -47 -32.5 -82.5t-79.5 -35.5q-49 0 -84 31.5t-35 80.5zM451 1798q0 49 33.5 84t84.5 35q45 0 79 -34t34 -79q0 -47 -33 -82.5t-80 -35.5 q-49 0 -83.5 31.5t-34.5 80.5z" />
<glyph unicode="&#x192;" d="M-113 -305l31 172h39q82 8 133 34.5t90 92.5q39 68 78 270l109 625h-134l19 151h143l43 248q35 205 123 314.5t281 109.5q68 0 123 -14l-33 -172q-37 14 -84 14q-111 0 -156 -78q-37 -63 -61 -196l-45 -226h264l-19 -151h-268l-112 -615q-2 -6 -9.5 -47t-9.5 -54t-10 -51 t-13.5 -56.5t-14.5 -50t-17 -53t-20.5 -46.5t-24.5 -43q-59 -88 -168 -133t-227 -45h-50z" />
<glyph unicode="&#x2c6;" horiz-adv-x="573" d="M33 1249l258 287l252 -287l-97 -78l-159 170l-148 -170z" />
<glyph unicode="&#x2da;" horiz-adv-x="573" d="M121 1356q0 72 48 122t117.5 50t119 -50.5t49.5 -121.5q0 -66 -49.5 -114t-114.5 -48q-70 0 -120 46t-50 116zM217 1358q0 -29 21.5 -48.5t52.5 -19.5q27 0 47 20.5t20 47.5q0 31 -19.5 52.5t-51.5 21.5q-31 0 -50.5 -21.5t-19.5 -52.5z" />
<glyph unicode="&#x2dc;" horiz-adv-x="573" d="M31 1274q2 84 38.5 143.5t114.5 59.5q51 0 114.5 -34t92.5 -34q35 0 39 59h115q2 -86 -34 -144t-118 -58q-41 0 -104.5 32.5t-87.5 32.5q-49 0 -45 -57h-125z" />
<glyph unicode="&#x3a9;" horiz-adv-x="1048" d="M61 0v168h209v6q-188 281 -188 668q0 313 125 509.5t323 196.5q137 0 236.5 -99t145.5 -253t46 -336q0 -205 -55 -387t-133 -299v-6h211v-168h-381v121q74 86 124 269t50 419q-2 231 -64.5 396t-185.5 165q-119 0 -187.5 -156.5t-68.5 -408.5q0 -221 51.5 -412.5 t120.5 -271.5v-121h-379z" />
<glyph unicode="&#x3c0;" horiz-adv-x="927" d="M18 1081q74 61 250 62h629l-14 -178h-109v-678q0 -188 21 -287h-172q-29 68 -29 285v680h-225q-8 -221 -37 -508t-72 -457h-174q43 186 71.5 467t32.5 498q-100 0 -147 -19z" />
<glyph unicode="&#x2000;" horiz-adv-x="1024" />
<glyph unicode="&#x2001;" horiz-adv-x="2048" />
<glyph unicode="&#x2002;" horiz-adv-x="1024" />
<glyph unicode="&#x2003;" horiz-adv-x="2048" />
<glyph unicode="&#x2004;" horiz-adv-x="681" />
<glyph unicode="&#x2005;" horiz-adv-x="512" />
<glyph unicode="&#x2006;" horiz-adv-x="339" />
<glyph unicode="&#x2007;" />
<glyph unicode="&#x2008;" horiz-adv-x="419" />
<glyph unicode="&#x2009;" horiz-adv-x="204" />
<glyph unicode="&#x200a;" horiz-adv-x="20" />
<glyph unicode="&#x200b;" horiz-adv-x="0" />
<glyph unicode="&#x200c;" horiz-adv-x="0" />
<glyph unicode="&#x200d;" horiz-adv-x="0" />
<glyph unicode="&#x200e;" horiz-adv-x="681" />
<glyph unicode="&#x200f;" horiz-adv-x="681" />
<glyph unicode="&#x2010;" horiz-adv-x="495" d="M66 453v155h364v-155h-364z" />
<glyph unicode="&#x2011;" horiz-adv-x="495" d="M66 453v155h364v-155h-364z" />
<glyph unicode="&#x2012;" d="M66 453v155h710v-155h-710z" />
<glyph unicode="&#x2013;" horiz-adv-x="1024" d="M0 455v151h1024v-151h-1024z" />
<glyph unicode="&#x2014;" horiz-adv-x="2048" d="M266 455v151h1516v-151h-1516z" />
<glyph unicode="&#x2015;" horiz-adv-x="4096" d="M66 453v155h3964v-155h-3964z" />
<glyph unicode="&#x2016;" horiz-adv-x="1024" d="M696 -438v2048h144v-2048h-144zM184 -438v2048h144v-2048h-144z" />
<glyph unicode="&#x2018;" horiz-adv-x="436" d="M55 1020l197 545l106 -31l-137 -563z" />
<glyph unicode="&#x2019;" horiz-adv-x="436" d="M78 1001l137 564l166 -49l-199 -543z" />
<glyph unicode="&#x201a;" horiz-adv-x="436" d="M78 -348l137 565l166 -51l-199 -543z" />
<glyph unicode="&#x201c;" horiz-adv-x="704" d="M43 1020l197 545l106 -31l-137 -563zM324 1020l196 545l107 -31l-138 -563z" />
<glyph unicode="&#x201d;" horiz-adv-x="704" d="M78 1001l137 564l166 -49l-199 -543zM358 1001l138 564l166 -49l-199 -543z" />
<glyph unicode="&#x201e;" horiz-adv-x="704" d="M78 -348l137 565l166 -51l-199 -543zM358 -348l138 565l166 -51l-199 -543z" />
<glyph unicode="&#x2020;" horiz-adv-x="735" d="M59 866v168h213v510h193v-510h211v-168h-211v-1147h-193v1147h-213z" />
<glyph unicode="&#x2021;" horiz-adv-x="735" d="M59 362v168h213v377h-213v168h213v469h193v-469h211v-168h-211v-377h211v-168h-211v-643h-193v643h-213z" />
<glyph unicode="&#x2022;" horiz-adv-x="819" d="M25 772q0 160 111.5 273.5t271.5 113.5q162 0 275.5 -113.5t113.5 -273.5q0 -158 -114 -271.5t-275 -113.5q-160 0 -271.5 113.5t-111.5 271.5z" />
<glyph unicode="&#x2024;" horiz-adv-x="419" d="M88 109q0 49 36 84.5t87 35.5t87 -35.5t36 -84.5q0 -51 -36 -88t-87 -37t-87 37t-36 88z" />
<glyph unicode="&#x2025;" horiz-adv-x="839" d="M508 109q0 49 36 84.5t87 35.5t87 -35.5t36 -84.5q0 -51 -36 -88t-87 -37t-87 37t-36 88zM88 109q0 49 36 84.5t87 35.5t87 -35.5t36 -84.5q0 -51 -36 -88t-87 -37t-87 37t-36 88z" />
<glyph unicode="&#x2026;" horiz-adv-x="2048" d="M219 104q0 49 36 85t87 36t87 -35.5t36 -85.5q0 -51 -36 -87.5t-87 -36.5t-87 36.5t-36 87.5zM901 104q0 49 36 85t87 36t87 -35.5t36 -85.5q0 -51 -36 -87.5t-87 -36.5t-87 36.5t-36 87.5zM1583 104q0 49 36 85t87 36t87 -35.5t36 -85.5q0 -51 -36 -87.5t-87 -36.5 t-87 36.5t-36 87.5z" />
<glyph unicode="&#x202a;" horiz-adv-x="0" />
<glyph unicode="&#x202f;" horiz-adv-x="395" />
<glyph unicode="&#x2030;" horiz-adv-x="1673" d="M86 1196q0 70 6 123t26.5 114.5t67.5 95.5t119 34t119 -34t67.5 -95.5t26.5 -114.5t6 -123t-6 -122t-26.5 -114.5t-67.5 -96.5t-119 -34t-119 34t-67.5 96.5t-26.5 114.5t-6 122zM119 0l766 1544h127l-766 -1544h-127zM223 1144q0 -11 1 -34t3 -38t6.5 -35.5t10.5 -34 t14 -25.5t20.5 -18.5t26.5 -6.5t26.5 6.5t20.5 18.5t14.5 25.5t10.5 34t6 35.5t3 38t1 34v31v21v22v30q0 11 -1 34t-3 37t-6 34.5t-10.5 34t-14.5 26.5t-20.5 19.5t-26.5 6.5t-26.5 -6.5t-20.5 -19.5t-14 -26.5t-10.5 -34t-6.5 -34.5t-3 -36.5t-1 -34.5v-30v-22v-21v-31z M606 348.5q0 69.5 6 122.5t26.5 114.5t68 95.5t119 34t118.5 -34t67.5 -95.5t26.5 -114.5t6 -122.5t-6 -122t-26.5 -115t-67.5 -96t-118.5 -33.5t-119 33.5t-68 96t-26.5 115t-6 122zM743 296q0 -11 1 -33.5t3.5 -38t6.5 -36t10 -34t14 -25.5t20.5 -18.5t27 -6.5t26.5 6.5 t20.5 18.5t14.5 25.5t10 34t6 36t3 38t1 33.5v31v21v22v30q0 11 -1 34t-3 37t-6 34.5t-10 34t-14.5 27t-20.5 19.5t-26.5 6t-27 -6t-20.5 -19.5t-14 -27t-10 -34t-6.5 -34.5t-3.5 -36.5t-1 -34.5v-30v-22v-21v-31zM1147 348.5q0 69.5 6 122.5t26.5 114.5t67.5 95.5t119 34 t119 -34t67.5 -95.5t26.5 -114.5t6 -122.5t-6 -122t-26.5 -115t-67.5 -96t-119 -33.5t-119 33.5t-67.5 96t-26.5 115t-6 122zM1284 296q0 -11 1 -33.5t3 -38t6 -36t10.5 -34t14.5 -25.5t20.5 -18.5t26.5 -6.5t26.5 6.5t20.5 18.5t14.5 25.5t10.5 34t6 36t3 38t1 33.5v31v21 v22v30q0 11 -1 34t-3 37t-6 34.5t-10.5 34t-14.5 27t-20.5 19.5t-26.5 6t-26.5 -6t-20.5 -19.5t-14.5 -27t-10.5 -34t-6 -34.5t-3 -36.5t-1 -34.5v-30v-22v-21v-31z" />
<glyph unicode="&#x2032;" horiz-adv-x="512" d="M168 1544h176l-25 -463h-126z" />
<glyph unicode="&#x2033;" horiz-adv-x="1024" d="M680 1544h176l-25 -463h-126zM168 1544h176l-25 -463h-126z" />
<glyph unicode="&#x2034;" horiz-adv-x="1536" d="M1192 1544h176l-25 -463h-126zM680 1544h176l-25 -463h-126zM168 1544h176l-25 -463h-126z" />
<glyph unicode="&#x2035;" horiz-adv-x="573" d="M135 1440l137 88l168 -305l-102 -60z" />
<glyph unicode="&#x2036;" horiz-adv-x="1146" d="M708 1440l137 88l168 -305l-102 -60zM135 1440l137 88l168 -305l-102 -60z" />
<glyph unicode="&#x2037;" horiz-adv-x="1720" d="M1282 1440l137 88l168 -305l-102 -60zM708 1440l137 88l168 -305l-102 -60zM135 1440l137 88l168 -305l-102 -60z" />
<glyph unicode="&#x2039;" horiz-adv-x="487" d="M53 532l264 455l93 -55l-236 -400l213 -407l-90 -51z" />
<glyph unicode="&#x203a;" horiz-adv-x="487" d="M78 932l92 55l264 -455l-244 -458l-90 51l213 407z" />
<glyph unicode="&#x203c;" horiz-adv-x="1032" d="M651 106.5q0 51.5 36 87t87 35.5t87 -35.5t36 -87t-36 -87t-87 -35.5t-87 35.5t-36 87zM674 371v1173h204v-1173h-204zM135 106.5q0 51.5 36 87t87 35.5t87 -35.5t36 -87t-36 -87t-87 -35.5t-87 35.5t-36 87zM158 371v1173h204v-1173h-204z" />
<glyph unicode="&#x203e;" horiz-adv-x="419" d="M-320 123v118h641v-118h-641z" />
<glyph unicode="&#x2044;" horiz-adv-x="249" d="M-322 0l766 1544h127l-766 -1544h-127z" />
<glyph unicode="&#x2047;" horiz-adv-x="1396" d="M768 1163v25q0 72 4 119t20.5 100t44 85t79.5 52.5t124 20.5q84 0 142.5 -27t89 -65.5t48 -105.5t21.5 -123t4 -142q0 -63 -2 -103.5t-13 -106t-31.5 -104t-63.5 -68.5t-105 -28v-327h-180v464l47 -2q53 0 86 19.5t46 62.5t16.5 76t3.5 94v30v39q0 15 -1 44t-3.5 47 t-7.5 44t-12 42t-17.5 31.5t-25.5 24t-34 8.5q-31 0 -51 -15.5t-27.5 -47.5t-8.5 -52.5t-1 -59.5v-14v-37h-192zM915 106.5q0 51.5 36 87t87 35.5t87 -35.5t36 -87t-36 -87t-87 -35.5t-87 35.5t-36 87zM70 1163v25q0 72 4 119t20.5 100t44 85t79.5 52.5t124 20.5 q84 0 142.5 -27t89 -65.5t48 -105.5t21.5 -123t4 -142q0 -63 -2 -103.5t-13 -106t-31.5 -104t-63.5 -68.5t-105 -28v-327h-180v464l47 -2q53 0 86 19.5t46 62.5t16.5 76t3.5 94v30v39q0 15 -1 44t-3.5 47t-7.5 44t-12 42t-17.5 31.5t-25.5 24t-34 8.5q-31 0 -51 -15.5 t-27.5 -47.5t-8.5 -52.5t-1 -59.5v-14v-37h-192zM217 106.5q0 51.5 36 87t87 35.5t87 -35.5t36 -87t-36 -87t-87 -35.5t-87 35.5t-36 87z" />
<glyph unicode="&#x2048;" horiz-adv-x="1214" d="M833 106.5q0 51.5 36 87t87 35.5t87 -35.5t36 -87t-36 -87t-87 -35.5t-87 35.5t-36 87zM856 371v1173h204v-1173h-204zM70 1163v25q0 72 4 119t20.5 100t44 85t79.5 52.5t124 20.5q84 0 142.5 -27t89 -65.5t48 -105.5t21.5 -123t4 -142q0 -63 -2 -103.5t-13 -106 t-31.5 -104t-63.5 -68.5t-105 -28v-327h-180v464l47 -2q53 0 86 19.5t46 62.5t16.5 76t3.5 94v30v39q0 15 -1 44t-3.5 47t-7.5 44t-12 42t-17.5 31.5t-25.5 24t-34 8.5q-31 0 -51 -15.5t-27.5 -47.5t-8.5 -52.5t-1 -59.5v-14v-37h-192zM217 106.5q0 51.5 36 87t87 35.5 t87 -35.5t36 -87t-36 -87t-87 -35.5t-87 35.5t-36 87z" />
<glyph unicode="&#x2049;" horiz-adv-x="1214" d="M586 1163v25q0 72 4 119t20.5 100t44 85t79.5 52.5t124 20.5q84 0 142.5 -27t89 -65.5t48 -105.5t21.5 -123t4 -142q0 -63 -2 -103.5t-13 -106t-31.5 -104t-63.5 -68.5t-105 -28v-327h-180v464l47 -2q53 0 86 19.5t46 62.5t16.5 76t3.5 94v30v39q0 15 -1 44t-3.5 47 t-7.5 44t-12 42t-17.5 31.5t-25.5 24t-34 8.5q-31 0 -51 -15.5t-27.5 -47.5t-8.5 -52.5t-1 -59.5v-14v-37h-192zM733 106.5q0 51.5 36 87t87 35.5t87 -35.5t36 -87t-36 -87t-87 -35.5t-87 35.5t-36 87zM135 106.5q0 51.5 36 87t87 35.5t87 -35.5t36 -87t-36 -87t-87 -35.5 t-87 35.5t-36 87zM158 371v1173h204v-1173h-204z" />
<glyph unicode="&#x2057;" horiz-adv-x="2048" d="M1704 1544h176l-25 -463h-126zM1192 1544h176l-25 -463h-126zM680 1544h176l-25 -463h-126zM168 1544h176l-25 -463h-126z" />
<glyph unicode="&#x205f;" horiz-adv-x="495" />
<glyph unicode="&#x2060;" horiz-adv-x="0" />
<glyph unicode="&#x20a8;" horiz-adv-x="1417" d="M881 768q0 123 76.5 203t199.5 80q98 0 174 -45v-183q-61 55 -143 56q-55 0 -93 -30t-38 -81q2 -47 35.5 -87t81 -73t94.5 -70.5t79.5 -101t32.5 -145.5q0 -137 -79.5 -222t-217.5 -85q-86 0 -168 49v188q82 -66 160 -65q61 0 95 34.5t34 96.5q0 49 -33.5 91t-81 75.5 t-94.5 72.5t-80.5 100.5t-33.5 141.5zM125 0v1544h246q59 0 98 -3t99.5 -24.5t95 -60.5t62.5 -117.5t28 -189.5q0 -84 -16.5 -162t-66.5 -149.5t-130 -85.5l284 -752h-213l-278 756h-4v-756h-205zM330 860q11 -1 21 -1q186 0 186 245q0 131 -34 200q-33 67 -134 66h-7h-32 v-510z" />
<glyph unicode="&#x20ac;" d="M39 545l39 151h76q-2 20 -2 78q0 53 2 78h-115l39 152h86q43 557 387 557q152 0 221 -58v-182q-61 61 -186 61q-211 0 -230 -378h355l-39 -152h-326q-2 -25 -2 -78q0 -55 2 -78h285l-39 -151h-236q18 -387 228 -387q123 0 188 61v-186q-57 -49 -223 -49t-262.5 133 t-118.5 428h-129z" />
<glyph unicode="&#x2122;" horiz-adv-x="1536" d="M0 1421v123h573v-123h-223v-739h-125v739h-225zM696 682v862h183l200 -608h4l209 608h181v-862h-113v739h-4l-242 -739h-65l-236 739h-4v-739h-113z" />
<glyph unicode="&#x2202;" horiz-adv-x="903" d="M74 492q0 260 104.5 418.5t245.5 158.5q78 0 133 -41t80 -94h2q2 16 2 70q0 229 -76 392t-192 163q-111 0 -199 -101l-53 160q119 111 274 111q176 0 300 -200t124 -614q0 -451 -112.5 -686t-319.5 -235q-145 0 -229 140.5t-84 357.5zM254 481q0 -147 40 -230t109 -83h3 q90 0 149 166t72 401q-18 68 -63.5 117t-110.5 49q-86 0 -142.5 -125t-56.5 -295z" />
<glyph unicode="&#x2206;" horiz-adv-x="1007" d="M53 0v123l355 1433h208l340 -1429v-127h-903zM231 162h543l-178 723q-10 57 -45 196.5t-43 194.5h-6q-6 -53 -39 -183t-43 -186z" />
<glyph unicode="&#x220f;" horiz-adv-x="1132" d="M51 1339v187h1028v-187h-149v-1550h-185v1550h-362v-1550h-184v1550h-148z" />
<glyph unicode="&#x2211;" horiz-adv-x="878" d="M45 -72l399 734l-385 720v144h754v-166h-520v-8l354 -652l-397 -710v-6h594v-195h-799v139z" />
<glyph unicode="&#x221a;" horiz-adv-x="970" d="M59 752l271 104l164 -690q33 -195 32 -199l2 -2q12 131 23 203l278 1663h127l-352 -2140h-149l-244 987l-121 -47z" />
<glyph unicode="&#x221e;" horiz-adv-x="1394" d="M84 625q0 133 83 219t210 86q166 0 328 -205q98 113 149 147q84 57 180 58q119 -2 197 -83t78 -210v-4q0 -137 -84 -222t-201 -85q-86 0 -161 46t-163 160q-84 -100 -160.5 -153t-174.5 -53q-115 0 -198 85t-83 214zM201 623q2 -78 52 -131.5t126 -53.5h2q49 0 100 32 t77 58.5t79 89.5q-41 55 -59.5 78t-55.5 59t-72.5 50t-78.5 14q-80 0 -125 -55t-45 -141zM762 631q92 -111 144 -152t122 -41q74 0 119 58.5t45 128.5q0 88 -46 141t-122 53h-4q-33 0 -62.5 -11t-61.5 -38t-48.5 -43t-48 -53t-37.5 -43z" />
<glyph unicode="&#x222b;" horiz-adv-x="690" d="M53 -334l27 152q43 -18 65 -19q47 0 76 49q43 80 43 357q0 193 -11 559t-11 543q0 186 22.5 295.5t75.5 179.5q74 94 195 94q53 0 98 -23l-25 -143q-29 14 -53 14q-51 0 -84 -55q-47 -76 -47 -379q0 -170 10 -530.5t10 -550.5q0 -309 -67 -445q-63 -127 -209 -126 q-68 -1 -115 28z" />
<glyph unicode="&#x2248;" horiz-adv-x="903" d="M66 393q35 88 96 140.5t137 52.5q20 0 40.5 -4t35 -8.5t33 -13.5t26.5 -14t25.5 -15.5t19.5 -12.5q10 -6 31.5 -19.5t32 -19.5t26 -14t28.5 -11t26 -3q43 0 74.5 33.5t66.5 105.5l72 -58q-31 -86 -89.5 -140t-132.5 -54q-76 0 -182 72q-98 66 -145 65q-35 0 -63.5 -21.5 t-46 -48t-38.5 -69.5zM66 717q35 88 96 140t137 52q25 0 47.5 -4t43 -14t33.5 -16.5t33.5 -19.5t24.5 -15q6 -4 30 -19.5t32 -19.5l24 -13q16 -8 28.5 -11t27.5 -3q43 0 74.5 34t66.5 103l72 -55q-31 -86 -89.5 -141.5t-132 -55.5t-182.5 72q-92 66 -145 66q-49 0 -81 -35 t-67 -103z" />
<glyph unicode="&#x2260;" horiz-adv-x="903" d="M84 375v119h264l101 247h-365v121h405l78 195l92 -35l-67 -160h225v-121h-264l-102 -247h366v-119h-405l-80 -193l-90 33l65 160h-223z" />
<glyph unicode="&#x2264;" horiz-adv-x="903" d="M86 43v125h735v-125h-735zM92 668v127l721 424v-146l-608 -338v-4l608 -340v-147z" />
<glyph unicode="&#x2265;" horiz-adv-x="903" d="M88 43v125h733v-125h-733zM96 244v147l609 338v4l-609 340v146l721 -424v-127z" />
<glyph unicode="&#x25ca;" horiz-adv-x="970" d="M90 762l324 844h155l310 -844l-322 -840h-156zM260 768l189 -535q18 -61 28 -135h10q10 84 29 131l195 529l-187 524q-20 68 -32 143h-7q-23 -109 -32 -143z" />
<glyph unicode="&#xe000;" horiz-adv-x="1035" d="M0 1035h1035v-1035h-1035v1035z" />
<glyph unicode="&#xfb01;" horiz-adv-x="940" d="M43 883v151h96v334q0 80 6.5 131t28 106.5t71.5 83t128 27.5q61 0 129 -28v-201q-45 25 -80 24q-43 0 -64.5 -26.5t-23.5 -52t-2 -72.5v-14v-312h160v-151h-160v-883h-193v883h-96zM592 1347.5q0 53.5 38 90.5t91 37q51 0 89 -38t38 -89q0 -53 -38 -91t-89 -38 q-53 0 -91 37.5t-38 91zM631 0v1034h192v-1034h-192z" />
<glyph unicode="&#xfb02;" horiz-adv-x="911" d="M43 883v151h96v334q0 80 6.5 131t28 106.5t71.5 83t128 27.5q61 0 129 -28v-201q-45 25 -80 24q-43 0 -64.5 -26.5t-23.5 -52t-2 -72.5v-14v-312h160v-151h-160v-883h-193v883h-96zM631 0v1700h192v-1700h-192z" />
</font>
</defs>
</svg>
